<svg xmlns="http://www.w3.org/2000/svg" style="display: none;">
  <symbol id="icon-drama" viewBox="0 0 90 90">
    <path stroke-width=".5"
      d="M21.5 39.14a4.43 4.43 0 0 0-6.14 1.43 4.4 4.4 0 0 0-.56 3.4.33.33 0 0 0 .33.27h.08a.34.34 0 0 0 .26-.42 3.8 3.8 0 0 1 1.5-3.97q.6-.44 1.35-.6a3.74 3.74 0 0 1 4.52 2.85.35.35 0 0 0 .41.26.3.3 0 0 0 .26-.28v-.13a4.5 4.5 0 0 0-2-2.8ZM34.64 48.02a.35.35 0 0 0-.26.4 4.42 4.42 0 0 1-5 5.39A4.4 4.4 0 0 1 26.52 52a4 4 0 0 1-.7-1.6.34.34 0 0 0-.63-.1.4.4 0 0 0-.04.26 5.14 5.14 0 0 0 4.95 3.99q.57 0 1.15-.13A5.1 5.1 0 0 0 35 48.14a.3.3 0 0 0-.36-.12Z" />
    <path stroke-width=".5"
      d="M79.25 34.36c-3.9.51-8.76 1.16-13.5.06-4.74-1.11-8.79-3.85-12.1-6.03q-2.2-1.55-4.6-2.79a83 83 0 0 0-1.29-6.87c-.7-3.05-1.68-4.74-3.1-5.32-2.15-.86-4.87.93-8.29 3.27-3.28 2.2-7.36 4.92-12.11 6.02-4.76 1.1-9.62.44-13.5-.06-4.1-.54-7.36-.97-8.9.75-1.02 1.15-1.2 3.1-.5 6.16 1 4.35 3.96 15.46 9.94 24.42 5.31 7.97 11.47 11.99 18.35 11.99a19 19 0 0 0 4.38-.53 17 17 0 0 0 7.72-4c2.33 8.67 7.14 14.07 14.23 15.72q2.18.52 4.42.53c18.88 0 26.77-30 28.24-36.42.7-3.06.54-5-.49-6.16-1.55-1.74-4.8-1.29-8.9-.74Zm-45.38 30.4c-8.35 1.94-15.76-1.87-22-11.15-5.9-8.9-8.84-19.9-9.83-24.22-.64-2.78-.53-4.59.33-5.57 1.3-1.45 4.4-1.04 8.28-.52s8.89 1.17 13.74 0 9.02-3.82 12.33-6.04 5.88-3.93 7.68-3.2q1.76.69 2.7 4.82c.45 1.96.85 4.16 1.16 6.4a4 4 0 0 0-2.95-.16c-1.43.58-2.42 2.27-3.12 5.32-.25 1.12-.68 3.2-1.09 5.88a4.45 4.45 0 0 0-5.43-1.68 4.46 4.46 0 0 0-2.63 5.09.34.34 0 0 0 .34.27h.08a.4.4 0 0 0 .21-.16.4.4 0 0 0 .04-.27 3.83 3.83 0 0 1 2.64-4.61 3.73 3.73 0 0 1 4.61 2.58c-.92 6.4-.97 12.9-.14 19.31q.3 2.02.74 3.83a16.4 16.4 0 0 1-7.69 4.07Zm54.1-23.66c-.92 4.16-9.92 40.47-31.84 35.37-8.07-1.86-13-8.51-14.65-19.72s.65-22.87 1.4-26.18c.63-2.78 1.52-4.35 2.7-4.83q.45-.17.92-.16c1.73 0 4 1.52 6.77 3.37 3.33 2.22 7.48 4.98 12.33 6.12s9.79.47 13.75 0c3.95-.48 6.99-.93 8.28.52q1.29 1.38.34 5.51Z" />
    <path stroke-width=".5"
      d="M57.88 47.4a.4.4 0 0 0-.14-.37l-.12-.05a.33.33 0 0 0-.41.26 3.75 3.75 0 0 1-6.88 1.16c-.54-.86-.7-1.9-.48-2.88a.35.35 0 0 0-.26-.42.35.35 0 0 0-.41.26 4.55 4.55 0 0 0 3.34 5.4q.5.12 1 .12a4.45 4.45 0 0 0 4.36-3.48ZM75.88 51.22a.35.35 0 0 0-.42.26 3.75 3.75 0 0 1-6.88 1.17c-.53-.86-.7-1.89-.48-2.88a.36.36 0 0 0-.26-.41.3.3 0 0 0-.36.13l-.05.13a4.54 4.54 0 0 0 3.33 5.4q.5.1 1 .11a4.45 4.45 0 0 0 4.35-3.49.36.36 0 0 0-.23-.42ZM59.98 60.8a5 5 0 0 0-5.29 2.02 5 5 0 0 0-.81 1.97.4.4 0 0 0 .26.28.34.34 0 0 0 .36-.14l.05-.12a4.5 4.5 0 0 1 3.56-3.4q.86-.15 1.71.05a4.47 4.47 0 0 1 3.3 5.32.36.36 0 0 0 .25.42h.09a.34.34 0 0 0 .33-.27 5.2 5.2 0 0 0-3.81-6.12Z" />
  </symbol>
  <symbol id="icon-education" viewBox="0 0 90 90" stroke="none">
    <path fill-rule="evenodd" clip-rule="evenodd"
      d="m32 20.67 17.07-6.57-16.79-1.88a.9.9 0 0 1-.77-.97.87.87 0 0 1 .96-.77l20.17 2.25 4.32-1.67L32 1.82 7.03 11.06zm-3.44 32.77L1.7 46.23A2.31 2.31 0 0 1 .08 43.4l1.06-4a.87.87 0 0 1 1.18-.59l.76.26 2.03-7.04a.9.9 0 0 1 1.1-.56 70 70 0 0 1 14.8 6.63 41 41 0 0 1 10.09 8.45h1.8q8.05-9.56 24.85-15.07l.07-.03a.9.9 0 0 1 1.09.61l2 7.01.77-.26.1-.03a.87.87 0 0 1 1.08.62l1.06 3.99a2.3 2.3 0 0 1-.2 1.69l-.03.06c-.3.52-.79.91-1.4 1.08l-26.85 7.22q-.17.5-.55.88l-.06.05a2.3 2.3 0 0 1-1.57.63h-2.52a2.3 2.3 0 0 1-2.18-1.56M4.75 39.64 29.45 48H30l-.04-.07a39 39 0 0 0-9.87-8.33 68 68 0 0 0-13.57-6.17zm23.68 9.87L3.45 41.05h-.02l-.1-.04-.73-.25-.83 3.09q-.05.23.06.42t.33.26l26.27 7.06zM60.65 41l-.09.04h-.01l-24.99 8.46v2.08l26.27-7.06a.6.6 0 0 0 .34-.26l.01-.03a.6.6 0 0 0 .04-.4l-.82-3.08zm-1.4-1.37-1.78-6.21q-15.98 5.4-23.49 14.56h.57zm-28.51 13.6h2.51q.22 0 .36-.13l.03-.03q.16-.16.16-.39v-2.93H30.2v2.93q0 .23.16.39t.39.16m22.63-33.33q.71.02 1.18.48a1.7 1.7 0 0 1 .3 1.95q-.19.37-.51.6a.9.9 0 0 0-.36.91l1.18 5.24h-3.58l1.17-5.21a.9.9 0 0 0-.35-.94 1.7 1.7 0 0 1-.7-1.36 1.7 1.7 0 0 1 1.67-1.67m-2.42-.76q.64-.64 1.54-.89v-3.6l-4.27 1.65v13.13c0 .34-.18.63-.46.78C43.2 33.05 37.6 34.47 32 34.47c-5.62 0-11.24-1.43-15.82-4.28a.9.9 0 0 1-.41-.75V16.31L4.22 11.87a.88.88 0 0 1 .01-1.65L31.7.05q.3-.1.6 0l27.45 10.16q.38.13.54.52a.9.9 0 0 1-.51 1.14l-5.52 2.12v4.27q.9.25 1.53.9h.01a3.4 3.4 0 0 1 .02 4.82l1.29 5.73q.03.12.04.27c0 .48-.4.88-.88.88h-5.78l-.19-.03a.9.9 0 0 1-.66-1.05l1.3-5.8a3.43 3.43 0 0 1 .02-4.83m-33.42-2.17 14.15 5.45q.32.12.63 0l14.16-5.45v11.97A28.5 28.5 0 0 1 32 32.7a28.5 28.5 0 0 1-14.47-3.76z" />
  </symbol>
  <symbol id="icon-government" viewBox="0 0 90 90">
    <path stroke-width=".5"
      d="M35.007 10.93c-1.699 0-3.085 1.406-3.085 3.13 0 1.725 1.386 3.132 3.085 3.132 1.698 0 3.084-1.407 3.084-3.131 0-1.725-1.386-3.132-3.084-3.132Zm0 5.641c-1.362 0-2.46-1.116-2.46-2.498s1.098-2.497 2.46-2.497c1.36 0 2.46 1.115 2.46 2.497 0 1.383-1.1 2.498-2.46 2.498Z" />
    <path stroke-width=".5" d="M35.691 13.744h-.387v-1.09a.312.312 0 1 0-.624 0v1.407c0 .177.137.317.312.317h.7c.174 0 .312-.14.312-.317a.31.31 0 0 0-.313-.317Z" />
    <path stroke-width=".5"
      d="M69.747 17.992 57.37 15.493c.087-.05.15-.14.15-.241v-1.407a.31.31 0 0 0-.313-.317h-.837L51.101.622a.32.32 0 0 0-.287-.19L19.192.013a.31.31 0 0 0-.287.203l-5.258 13.313h-.837a.31.31 0 0 0-.312.317v1.407c0 .114.063.19.15.24L.246 17.992a.3.3 0 0 0-.2.14.32.32 0 0 0-.05.24l.538 2.765a.31.31 0 0 0 .3.253h.062l1.86-.38v33.687c0 .178.138.317.313.317h63.83c.175 0 .313-.14.313-.317V21.01l1.86.38h.063a.32.32 0 0 0 .312-.253l.537-2.764a.3.3 0 0 0-.25-.368zM57.583 54.367h-13.95V49.37h13.95zm-38.229-5.63v-1.09a.31.31 0 0 0-.312-.317h-.387V21.897h.387c.175 0 .312-.14.312-.317v-1.09h1.462v1.09c0 .177.137.317.312.317h.387V47.33h-.387a.31.31 0 0 0-.312.317v1.09zM13.81 20.49h4.921v.774h-4.92zm4.222 1.407V47.33h-3.535V21.897zm.699 26.068v.773h-4.92v-.773zm7.63-27.475v.774h-4.92v-.774zm16.648 0v1.09c0 .178.138.317.313.317h.387V47.33h-.387a.31.31 0 0 0-.313.317v1.09h-.762v-17.99a.31.31 0 0 0-.312-.318H28.06a.31.31 0 0 0-.312.317v17.991h-.762v-1.09a.31.31 0 0 0-.312-.317h-.387V21.897h.387c.175 0 .312-.14.312-.317v-1.09zm5.558 0v.774h-4.92v-.774zm2.085 0v1.09c0 .178.138.317.313.317h.387V47.33h-.387a.31.31 0 0 0-.312.317v1.09H49.19v-1.09a.31.31 0 0 0-.312-.317h-.375V21.897h.375c.175 0 .312-.14.312-.317v-1.09zm-7.643 28.882v2.18H26.985v-2.18zm-1.386-.634h-.762V32.154a.31.31 0 0 0-.312-.317H29.445a.31.31 0 0 0-.312.317v16.583h-.762V31.063h13.251zm-6.307 0V32.471h4.92v16.266zm-5.557 0V32.471h4.92v16.266zm18.109-26.84V47.33h-3.535V21.897zm.699 26.067v.773h-4.92v-.773zm-26.44-.634V21.897h3.535V47.33zm-.686.634h4.92v.773h-4.92zm5.545 4.222h16.023v2.18H26.985zm29.212-3.449h-4.921v-.773h4.92zm-4.234-1.407V21.897h3.534V47.33zm-.687-26.067v-.774h4.92v.774zM13.11 19.855v-.773h43.786v.773zm42.387-1.407h-6.32v-2.89h1.949l.4.164a.5.5 0 0 0 .125.025.32.32 0 0 0 .287-.19h3.572v2.89zm-34.681-3.525h-.437l.437-.19zm.624-.444 13.563-5.705 13.563 5.706v3.968H21.44zm27.75.267.437.19h-.437zm2.298.279L35.128 8.14a.26.26 0 0 0-.237 0l-16.36 6.885-.825-2.016 17.31-7.278 17.297 7.278zm-33.42.532c.075.152.25.228.4.165l.4-.165h1.948v2.89h-6.32v-2.89zM13.11 14.15h.737s.037-.026.062-.026c.038 0 .063-.025.1-.038a.3.3 0 0 0 .088-.088c0-.013.037-.026.05-.051L19.392.634l31.21.419 5.27 12.907s.037.038.05.063c.012.013.025.038.037.05.063.051.125.09.2.09h.737v.773H52.2l.8-1.965a.323.323 0 0 0-.163-.419l-17.71-7.455a.26.26 0 0 0-.236 0l-17.722 7.455a.34.34 0 0 0-.175.178.27.27 0 0 0 0 .24l.8 1.966h-4.696v-.773zM.671 18.55l13.2-2.663v2.231L1.097 20.692zm2.723 2.32 9.092-1.839v1.141c0 .178.137.317.312.317h.387v1.09c0 .178.137.317.312.317h.387V47.33h-.387a.31.31 0 0 0-.312.317v1.09H12.11a.31.31 0 0 0-.312.317v5.313H3.394zM12.41 49.37h13.95v4.996H12.41zM66.6 54.367h-8.393v-5.313a.31.31 0 0 0-.312-.317h-1.074v-1.09a.31.31 0 0 0-.312-.317h-.387V21.897h.387c.175 0 .312-.14.312-.317v-1.09h.387c.175 0 .312-.14.312-.318v-1.128l9.092 1.838V54.38zm2.298-33.675-12.776-2.574v-2.231l13.2 2.662z" />
    <path stroke-width=".5"
      d="M33.617 40.99a.31.31 0 0 0-.312.317v1.407a.312.312 0 1 0 .624 0v-1.407a.31.31 0 0 0-.312-.317ZM36.39 40.99a.31.31 0 0 0-.312.317v1.407a.312.312 0 1 0 .625 0v-1.407a.31.31 0 0 0-.313-.317Z" />
  </symbol>
  <symbol id="icon-horeca" viewBox="0 0 68 68" stroke="none">
    <path
      d="M29.57 60.44a.7.7 0 0 1 .58-.78c.37-.05.71.2.76.58l.38 2.62v.01c.2 1.65-.67 2.75-1.93 3.33q-.8.36-1.75.43a6 6 0 0 1-1.82-.13c-1.56-.37-2.87-1.38-3-3.02l-.43-2.98a.7.7 0 0 1 .57-.78c.37-.06.72.2.77.58l.44 3v.06c.07.94.93 1.55 1.96 1.8q.69.16 1.41.1.7-.05 1.3-.31c.73-.34 1.25-.98 1.13-1.91zm1.56-47.13c.48 0 .84.39.81.87a.94.94 0 0 1-.91.88.8.8 0 0 1-.82-.88.94.94 0 0 1 .92-.87M21.08 23.99a.54.54 0 1 1-1.06-.27c.56-2.26 2-4.22 3.99-5.62a12.3 12.3 0 0 1 7.07-2.17c2.67 0 5.14.82 7.07 2.17 2 1.4 3.43 3.36 3.99 5.62.07.3-.1.6-.4.67a.54.54 0 0 1-.66-.4A8.7 8.7 0 0 0 37.54 19c-1.76-1.23-4.01-1.97-6.46-1.97s-4.7.74-6.46 1.97A8.7 8.7 0 0 0 21.08 24m-4.85 23.23a.55.55 0 0 1-.54-.55c0-.3.25-.55.55-.54l26.13.23c.3 0 .54.25.54.55s-.25.55-.54.54zm.6-4.2a.55.55 0 0 1-.53-.55c0-.3.24-.54.54-.54l26.14.23c.3 0 .54.25.54.56 0 .3-.25.54-.55.54zm.26-4.19a.55.55 0 0 1-.53-.55c0-.3.24-.55.54-.54l26.14.23c.3 0 .54.25.54.55s-.25.55-.55.55zM18.01 27a.55.55 0 0 1-.54-.55c0-.3.25-.55.54-.55l26.14.24c.3 0 .54.25.54.55s-.25.55-.55.54zm-7.63 10.34a.7.7 0 0 1-.74.62.7.7 0 0 1-.61-.74l2.92-32.2a2.97 2.97 0 0 1 2.9-2.7h5.3c.38 0 .69.31.69.7 0 .37-.3.68-.68.68h-5.3q-.6.01-1.05.42a1.6 1.6 0 0 0-.5 1.02zM29.95 3.7a.7.7 0 0 1-.68-.69c0-.38.3-.69.68-.69h23.22c.72 0 1.42.3 1.97.78.54.48.94 1.14 1.05 1.88l4.85 32.71c.05.38-.2.73-.58.78a.7.7 0 0 1-.77-.58L55.37 8.68l-1.75 18.43a.7.7 0 0 1-.74.62.7.7 0 0 1-.61-.75L54.35 5v-.13a1.16 1.16 0 0 0-.91-1.14l-.3-.03zm21.34 34.97a.7.7 0 0 1 .73-.62c.38.03.65.37.62.75L50.39 63.3c-.16 1.77-1.4 2.82-2.83 3.2a4.8 4.8 0 0 1-3.02-.22 3 3 0 0 1-1.84-3.14l.2-2.2c.21-2.4-.29-2.88-1.2-2.96q-.46-.04-1.06-.03h-20.7l-1.74-.02h-1.3c-1.14 0-1.74.12-2.02.47-.32.4-.42 1.19-.53 2.45l-.07.8c-.07.84-.14 1.7-.3 2.58-.23 1.3-1.37 2.05-2.7 2.29a5.5 5.5 0 0 1-3.06-.38c-1.01-.48-1.7-1.33-1.59-2.54L8.16 47.3a.7.7 0 0 1 .74-.62c.37.04.64.37.61.75L7.98 63.74c-.05.53.3.92.82 1.17q.48.22 1.07.3.6.06 1.18-.04c.8-.14 1.49-.53 1.6-1.17.14-.77.21-1.62.28-2.45l.07-.81c.14-1.54.28-2.52.83-3.2.58-.72 1.48-.97 3.07-.98l1.31.01 1.74.01h20.69q.63-.01 1.19.04c1.75.17 2.74.9 2.42 4.45l-.2 2.2c-.08.87.38 1.46 1.05 1.76q.46.22 1.01.25.58.05 1.11-.1c.93-.24 1.72-.9 1.82-2zm9.85 8.46a.68.68 0 1 1 1.33-.25l2.97 15.8v.02a3.3 3.3 0 0 1-1.65 3.52q-.73.41-1.6.52-.84.1-1.7-.1a4.2 4.2 0 0 1-3.37-3.47l-.6-3.73-.01-.11c-.1-.6-.2-1.23-2.52-1.1a.7.7 0 0 1-.7-.66.7.7 0 0 1 .64-.72c3.54-.19 3.73 1.07 3.92 2.27 0 .03-.02-.08.01.1l.6 3.74a2.9 2.9 0 0 0 2.31 2.35q.62.14 1.26.06a3 3 0 0 0 1.1-.35c.68-.38 1.12-1.1.97-2.12z" />
  </symbol>
  <symbol id="icon-industry" viewBox="0 0 84 57">
    <path stroke-width=".5"
      d="M21.35 18.99c-.17 0-.32-.16-.32-.35v-6.66c0-1.22.75-2.21 1.66-2.21h1.7c.55 0 1-.68 1-1.5 0-1.23.75-2.22 1.66-2.22h5.89c.18 0 .32.16.32.35 0 .2-.14.35-.32.35h-5.89c-.55 0-1 .68-1 1.51 0 1.22-.75 2.21-1.67 2.21H22.7c-.56 0-1.01.68-1.01 1.51v6.66c0 .19-.15.35-.33.35ZM30.56 18.64c-.18 0-.33-.16-.33-.36v-4.11c0-.83.6-1.5 1.35-1.5h1.3c.38 0 .7-.36.7-.8 0-.83.6-1.5 1.34-1.5h4.5c.19 0 .33.15.33.35s-.14.35-.32.35h-4.5c-.4 0-.7.36-.7.8 0 .82-.61 1.5-1.35 1.5h-1.3c-.38 0-.7.36-.7.8v4.11c0 .2-.14.36-.32.36Z" />
    <path stroke-width=".5"
      d="M24 18.26c-.18 0-.33-.16-.33-.35v-3.35c0-.2.15-.35.33-.35.17 0 .32.16.32.35v3.35c0 .2-.15.35-.32.35ZM26.56 18.26c-.18 0-.33-.16-.33-.35v-6c0-.19.15-.34.33-.34s.32.15.32.35v5.99c0 .2-.14.35-.32.35ZM28.7 18.26c-.19 0-.33-.16-.33-.35v-2.52c0-.2.14-.35.32-.35s.32.15.32.35v2.52c0 .2-.14.35-.32.35ZM49.46 18.39c-.17 0-.32-.16-.32-.35v-6.66c0-1.22.75-2.2 1.66-2.2h1.7c.55 0 1-.69 1-1.52 0-1.22.75-2.21 1.66-2.21h5.89c.18 0 .32.16.32.35 0 .2-.14.35-.32.35h-5.89c-.55 0-1 .68-1 1.51 0 1.22-.75 2.21-1.67 2.21H50.8c-.56 0-1.01.68-1.01 1.51v6.66c0 .19-.15.35-.33.35ZM58.67 18.04c-.18 0-.33-.16-.33-.36v-4.11c0-.83.6-1.5 1.35-1.5H61c.38 0 .7-.36.7-.8 0-.83.6-1.5 1.34-1.5h4.5c.19 0 .33.15.33.35s-.14.35-.32.35h-4.5c-.4 0-.7.36-.7.8 0 .82-.61 1.5-1.35 1.5h-1.3c-.38 0-.7.36-.7.8v4.11c0 .2-.14.36-.32.36Z" />
    <path stroke-width=".5"
      d="M52.1 17.66c-.17 0-.32-.16-.32-.35v-3.35c0-.2.15-.35.32-.35s.33.16.33.35v3.35c0 .2-.15.35-.33.35ZM54.67 17.66c-.18 0-.33-.16-.33-.35v-6c0-.19.15-.34.33-.34s.32.15.32.35v5.99c0 .2-.14.35-.32.35ZM56.8 17.66c-.18 0-.32-.16-.32-.35v-2.52c0-.2.14-.35.32-.35s.32.15.32.35v2.52c0 .2-.14.35-.32.35ZM28.8 50.25H14.13a.3.3 0 0 1-.25-.13.4.4 0 0 1-.07-.3l.96-5.15a.33.33 0 0 1 .32-.28H28.8c.18 0 .32.16.32.35v5.16c0 .19-.14.35-.32.35Zm-14.28-.7h13.96v-4.46H15.34z" />
    <path stroke-width=".5"
      d="M28.8 55.85H13.07a.3.3 0 0 1-.25-.13.4.4 0 0 1-.06-.29l1.04-5.6a.33.33 0 0 1 .31-.28h14.7c.17 0 .32.15.32.35v5.6c0 .2-.15.35-.33.35Zm-15.33-.7h15v-4.9H14.39zM28.8 45.1H15.07a.3.3 0 0 1-.25-.14.4.4 0 0 1-.06-.29l.9-4.83a.33.33 0 0 1 .31-.28H28.8c.18 0 .33.16.33.35v4.83c0 .2-.15.35-.33.35Zm-13.33-.71h13.01v-4.13H16.24zM32.66 24.46H18.9a.3.3 0 0 1-.25-.13.4.4 0 0 1-.07-.29l.83-4.45a.33.33 0 0 1 .32-.28h12.1c.15 0 .29.12.32.28l.82 4.45q.03.16-.06.3a.3.3 0 0 1-.25.12Zm-13.36-.7h12.96l-.7-3.75H20z" />
    <path stroke-width=".5"
      d="M33.62 29.62H17.95a.3.3 0 0 1-.25-.13.4.4 0 0 1-.07-.3l.96-5.15a.33.33 0 0 1 .32-.28h13.75q.26.02.32.28l.96 5.16q.03.15-.07.29a.3.3 0 0 1-.25.13Zm-15.28-.7h14.88l-.82-4.46H19.17zM35.06 37.35H16.5a.3.3 0 0 1-.25-.12.4.4 0 0 1-.07-.3l.48-2.58a.33.33 0 0 1 .32-.28h17.59q.24.02.32.28l.47 2.58q.03.16-.06.3a.3.3 0 0 1-.25.12Zm-18.15-.7h17.75l-.35-1.88H17.26z" />
    <path stroke-width=".5"
      d="M34.57 34.78H16.98a.3.3 0 0 1-.25-.13.4.4 0 0 1-.07-.3l.96-5.15a.33.33 0 0 1 .32-.29H33.6c.15 0 .29.12.32.29l.95 5.15q.03.16-.06.3a.3.3 0 0 1-.25.13Zm-17.2-.7h16.8l-.83-4.46H18.2zM61.35 24.46H47.59a.3.3 0 0 1-.25-.13.4.4 0 0 1-.07-.29l.83-4.45a.33.33 0 0 1 .32-.28h12.1c.15 0 .28.12.32.28l.82 4.45q.03.16-.06.3a.3.3 0 0 1-.25.12Zm-13.37-.7h12.97l-.7-3.75H48.68z" />
    <path stroke-width=".5"
      d="M62.3 29.62H46.65a.3.3 0 0 1-.25-.13.4.4 0 0 1-.07-.3l.96-5.15a.33.33 0 0 1 .31-.28h13.76c.15 0 .29.12.32.28l.96 5.16q.02.15-.07.29a.3.3 0 0 1-.25.13Zm-15.27-.7h14.88l-.82-4.46H47.86zM63.74 37.35H45.19a.3.3 0 0 1-.25-.12.4.4 0 0 1-.07-.3l.48-2.58a.33.33 0 0 1 .32-.28h17.59c.15 0 .28.12.31.28l.48 2.58q.03.16-.06.3a.3.3 0 0 1-.25.12Zm-18.15-.7h17.75L63 34.77H45.93z" />
    <path stroke-width=".5"
      d="M63.26 34.78h-17.6a.3.3 0 0 1-.24-.13.4.4 0 0 1-.07-.3l.96-5.15a.33.33 0 0 1 .32-.29H62.3c.15 0 .28.12.31.29l.96 5.15q.03.16-.06.3a.3.3 0 0 1-.25.13Zm-17.2-.7h16.8l-.83-4.46H46.9z" />
    <path stroke="none"
      d="M75.37 56H28.83c-.2 0-.36-.17-.36-.39V40.26H2.54c-.18 0-.32-.15-.32-.35v-2.9c0-.2.14-.36.32-.36h72.83c.2 0 .36.18.36.39V55.6c0 .22-.16.39-.36.39m-46.25-.7h45.96V37.35H2.87v2.21H28.8c.17 0 .32.16.32.35z" />
    <path fill="none" stroke-width=".5"
      d="M75.37 56H28.83c-.2 0-.36-.17-.36-.39V40.26H2.54c-.18 0-.32-.15-.32-.35v-2.9c0-.2.14-.36.32-.36h72.83c.2 0 .36.18.36.39V55.6c0 .22-.16.39-.36.39Zm-46.25-.7h45.96V37.35H2.87v2.21H28.8c.17 0 .32.16.32.35z" />
    <path stroke-width=".5"
      d="M8.7 56H6.1c-.17 0-.32-.16-.32-.35V39.9c0-.2.15-.35.32-.35h2.6c.19 0 .33.16.33.35v15.74c0 .2-.14.35-.32.35Zm-2.27-.7h1.95V40.26H6.43zM75.38 37.35h-8.56c-.18 0-.32-.15-.32-.35v-9.05q0-.19.15-.3l8.56-6.06a.3.3 0 0 1 .33-.02q.16.11.17.31V37c0 .2-.15.35-.33.35Zm-8.23-.7h7.9V22.53l-7.9 5.6zM41.1 43.22h-4.51c-.18 0-.32-.15-.32-.35v-2.96c0-.2.14-.35.32-.35h4.5c.18 0 .33.16.33.35v2.96c0 .2-.15.35-.33.35Zm-4.19-.7h3.86v-2.26h-3.86zM50.11 43.22h-4.5c-.18 0-.33-.15-.33-.35v-2.96c0-.2.15-.35.32-.35h4.51c.18 0 .32.16.32.35v2.96c0 .2-.14.35-.32.35Zm-4.18-.7h3.86v-2.26h-3.86z" />
    <path stroke-width=".5"
      d="M45.6 43.22h-4.5c-.18 0-.33-.15-.33-.35v-2.96c0-.2.15-.35.33-.35h4.5c.18 0 .33.16.33.35v2.96c0 .2-.15.35-.33.35Zm-4.18-.7h3.86v-2.26h-3.86zM36.6 43.22h-4.51c-.18 0-.32-.15-.32-.35v-2.96c0-.2.14-.35.32-.35h4.5c.18 0 .33.16.33.35v2.96c0 .2-.15.35-.33.35Zm-4.19-.7h3.86v-2.26h-3.86zM68.13 43.22h-4.5c-.19 0-.33-.15-.33-.35v-2.96c0-.2.14-.35.32-.35h4.5c.18 0 .33.16.33.35v2.96c0 .2-.15.35-.32.35Zm-4.19-.7h3.86v-2.26h-3.86z" />
    <path stroke-width=".5"
      d="M63.63 43.22h-4.5c-.19 0-.33-.15-.33-.35v-2.96c0-.2.14-.35.32-.35h4.5c.18 0 .33.16.33.35v2.96c0 .2-.15.35-.32.35Zm-4.19-.7h3.86v-2.26h-3.86zM72.63 43.22h-4.5c-.19 0-.33-.15-.33-.35v-2.96c0-.2.14-.35.32-.35h4.5c.18 0 .33.16.33.35v2.96c0 .2-.15.35-.32.35Zm-4.19-.7h3.86v-2.26h-3.86z" />
    <path stroke-width=".5" d="M59.11 43.22h-4.5c-.18 0-.33-.15-.33-.35v-2.96c0-.2.15-.35.32-.35h4.51c.18 0 .32.16.32.35v2.96c0 .2-.14.35-.32.35Zm-4.18-.7h3.86v-2.26h-3.86z" />
    <path stroke-width=".5"
      d="M54.61 43.22h-4.5c-.18 0-.33-.15-.33-.35v-2.96c0-.2.15-.35.32-.35h4.51c.18 0 .32.16.32.35v2.96c0 .2-.14.35-.32.35Zm-4.18-.7h3.86v-2.26h-3.86zM45.23 4.04h-8.27c-.17 0-.32-.15-.32-.35V1.35c0-.2.15-.35.32-.35h8.27c.17 0 .32.16.32.35V3.7c0 .2-.15.35-.32.35Zm-7.94-.7h7.61V1.7H37.3z" />
    <path stroke-width=".5"
      d="M43.6 14.2h-5.01c-.18 0-.32-.16-.32-.35V3.69c0-.2.14-.35.32-.35h5c.19 0 .33.16.33.35v10.16c0 .2-.14.35-.32.35Zm-4.69-.7h4.36V4.04h-4.36zM43.6 37.35h-5.01c-.18 0-.32-.15-.32-.35V26.24c0-.2.14-.35.32-.35h5c.19 0 .33.16.33.35V37c0 .2-.14.35-.32.35Zm-4.69-.7h4.36V26.6h-4.36z" />
    <path stroke-width=".5"
      d="M43.6 26.6h-5.01c-.18 0-.32-.16-.32-.36v-12.4c0-.18.14-.34.32-.34h5c.19 0 .33.16.33.35v12.4c0 .19-.14.35-.32.35Zm-4.69-.7h4.36V14.2h-4.36zM82.68 56H1.32c-.18 0-.32-.16-.32-.35 0-.2.14-.35.32-.35h81.36c.18 0 .32.15.32.35s-.14.35-.32.35ZM36.82 51.43h-4.73c-.18 0-.32-.16-.32-.36v-5.13c0-.2.14-.35.32-.35h4.73c.18 0 .32.16.32.35v5.13c0 .2-.14.36-.32.36Zm-4.4-.7h4.08v-4.44H32.4zM43.98 51.43h-4.73c-.18 0-.33-.16-.33-.36v-5.13c0-.2.15-.35.33-.35h4.73c.17 0 .32.16.32.35v5.13c0 .2-.15.36-.32.36Zm-4.41-.7h4.08v-4.44h-4.08zM51.14 51.43H46.4c-.18 0-.32-.16-.32-.36v-5.13c0-.2.14-.35.32-.35h4.73c.18 0 .32.16.32.35v5.13c0 .2-.14.36-.32.36Zm-4.4-.7h4.08v-4.44h-4.09zM58.3 51.43h-4.73c-.18 0-.32-.16-.32-.36v-5.13c0-.2.14-.35.32-.35h4.73c.18 0 .33.16.33.35v5.13c0 .2-.15.36-.33.36Zm-4.4-.7h4.08v-4.44H53.9zM65.47 51.43h-4.73c-.18 0-.33-.16-.33-.36v-5.13c0-.2.15-.35.33-.35h4.73c.18 0 .32.16.32.35v5.13c0 .2-.14.36-.32.36Zm-4.4-.7h4.07v-4.44h-4.08zM72.62 51.43H67.9c-.17 0-.32-.16-.32-.36v-5.13c0-.2.15-.35.32-.35h4.73c.18 0 .33.16.33.35v5.13c0 .2-.15.36-.33.36Zm-4.4-.7h4.08v-4.44h-4.08z" />
  </symbol>
  <symbol id="icon-medicine" viewBox="0 0 88 87" stroke="none">
    <path
      d="M36.05 24.73c-2.4-2.12-3.85-1.76-6.68-1.07-1.2.29-2.61.63-4.37.9-2.57.38-5.15.5-7.64.18a17 17 0 0 1-7.14-2.5 1 1 0 0 0-.44-.13 1 1 0 0 0-.44.14.8.8 0 0 0-.34.83 5.5 5.5 0 0 0 3.79 4.34l.52.16.05.55a1.8 1.8 0 0 0 .85 1.33 1.7 1.7 0 0 0 1.57.07l1.03-.5.1 1.16a1.7 1.7 0 0 0 .85 1.33 1.7 1.7 0 0 0 1.57.06l.77-.37.31.8a1.7 1.7 0 0 0 1.18 1.06 1.7 1.7 0 0 0 1.52-.38l.86-.77.42 1.08a1.7 1.7 0 0 0 1.18 1.05 1.7 1.7 0 0 0 1.52-.39l.56-.5.53.53q.46.46 1.48.8a14 14 0 0 0 8.1 0 .8.8 0 0 1 1.01.5.8.8 0 0 1-.5 1.03 15.67 15.67 0 0 1-9.11 0q-.92-.3-1.57-.73a3.3 3.3 0 0 1-2.4.34 3.3 3.3 0 0 1-1.82-1.2 3.3 3.3 0 0 1-2.15.22 3.3 3.3 0 0 1-1.94-1.35 3.3 3.3 0 0 1-3.74-2.02q-.3.04-.62.03a3.2 3.2 0 0 1-2.64-1.52q-.3-.46-.42-.97a7 7 0 0 1-4.2-4.46q-.16-.48-.25-1a2.45 2.45 0 0 1 2.34-2.87q.68 0 1.31.38c2 1.27 4.2 1.97 6.5 2.27 2.32.3 4.76.18 7.2-.19 1.75-.26 3.1-.59 4.24-.86 3.36-.82 5.07-1.24 8.09 1.42q.66.58 1.42 1.4.76.8 1.64 1.84c.29.34.25.85-.09 1.15a.8.8 0 0 1-1.12-.1q-.86-1-1.58-1.77-.7-.76-1.32-1.3m13 3.07a.8.8 0 0 1-1.12.09.8.8 0 0 1-.09-1.14 44 44 0 0 1 1.64-1.85q.75-.8 1.43-1.4c3.01-2.65 4.72-2.24 8.08-1.42 1.14.28 2.5.6 4.23.87 2.46.36 4.9.48 7.22.18 2.29-.3 4.49-1 6.49-2.27a2.37 2.37 0 0 1 3.5 1.1q.26.65.15 1.39a7 7 0 0 1-.63 1.97 7 7 0 0 1-3.82 3.5 3.3 3.3 0 0 1-3.06 2.49q-.32 0-.62-.03a3.4 3.4 0 0 1-1.43 1.65 3.2 3.2 0 0 1-2.31.37 3.3 3.3 0 0 1-3.5 1.35l-.6-.21a3.33 3.33 0 0 1-3.39 1.19q-.42-.12-.82-.34-.65.42-1.56.74a15.7 15.7 0 0 1-9.12 0 .8.8 0 0 1-.5-1.03.8.8 0 0 1 1-.51q1.14.38 2.58.52c1.76.17 3.85.05 5.53-.51q1.02-.35 1.48-.8l.53-.53.56.5a1.67 1.67 0 0 0 2.24 0q.3-.27.46-.67l.42-1.08.85.77a1.67 1.67 0 0 0 2.24 0q.3-.27.46-.67l.31-.8.77.36a1.7 1.7 0 0 0 1.57-.06 1.7 1.7 0 0 0 .85-1.33l.11-1.16 1.03.5a1.7 1.7 0 0 0 1.57-.07 1.8 1.8 0 0 0 .85-1.33l.05-.55.52-.16a5.4 5.4 0 0 0 3.8-4.34 1 1 0 0 0-.06-.47.8.8 0 0 0-.73-.5q-.22 0-.45.13a17 17 0 0 1-7.13 2.5c-2.49.32-5.07.2-7.64-.19-1.75-.26-3.18-.6-4.38-.9-2.82-.68-4.27-1.03-6.67 1.08q-.6.54-1.32 1.3t-1.57 1.77m8.96-2.46c.43.11.68.56.56 1a.8.8 0 0 1-.98.56 3.4 3.4 0 0 0-3.78 1.45.8.8 0 0 1-1.1.23.8.8 0 0 1-.23-1.12A5.1 5.1 0 0 1 58 25.34m-27.6 1.56a.8.8 0 0 1-.99-.57.8.8 0 0 1 .57-1 5 5 0 0 1 5.53 2.13c.24.37.14.87-.23 1.12a.8.8 0 0 1-1.1-.23 3.5 3.5 0 0 0-3.79-1.45m20.4 12.81a1.4 1.4 0 0 0-.81-.2q-.25.02-.33.15-.06.13.04.36.16.36.58.62c.22.14.54.23.8.2q.25-.02.33-.15.07-.14-.03-.36-.16-.36-.58-.62m-.99-1.82c.57-.06 1.2.08 1.79.42.58.34 1.01.84 1.25 1.36a2 2 0 0 1-.04 1.8c-.7 1.5-2.02 2.57-3.64 3.4-.85.39-1.6.72-2.5 1.02 4.83 1.87 5.97 4.44 5.2 7.3-.8 2.94-3.8 6.04-6.72 8.9l.65.64c4.96 4.84 5.41 7.17 4.1 8.55-.76.81-2.06 1.13-3.38 1.47l-.18.04q-.51.12-.9.27l.19.3c.37.63.42 1.3.24 1.97a4 4 0 0 1-.67 1.27c.94.6 2.14 1 3.26 1 .44 0 .8.37.8.82a.8.8 0 0 1-.8.81 8 8 0 0 1-4.46-1.5 8 8 0 0 1-4.47 1.5.8.8 0 0 1-.8-.81.8.8 0 0 1 .8-.82c1.12 0 2.32-.4 3.26-1q-.47-.6-.67-1.27a2.5 2.5 0 0 1 .43-2.27 9 9 0 0 0-.9-.27l-.18-.04c-1.32-.33-2.62-.66-3.39-1.47-1.3-1.38-.85-3.7 4.1-8.55l.66-.64c-2.94-2.86-5.93-5.96-6.72-8.9-.77-2.85.38-5.43 5.2-7.3q-1.35-.44-2.52-1.03c-1.6-.82-2.91-1.88-3.62-3.38q-.44-.89-.03-1.8c.22-.53.66-1.03 1.24-1.37a3 3 0 0 1 1.79-.41c.65.07 1.21.4 1.53.96.31.56.31 1.21.05 1.82q-.33.77-1.14 1.3l-.1.07q-.33.18-.66.29.72.6 1.66 1.07c1.3.67 2.88 1.17 4.48 1.63 1.36-.39 3.25-.94 4.47-1.62q.95-.48 1.67-1.08-.4-.14-.76-.36a3 3 0 0 1-1.14-1.3c-.26-.6-.27-1.26.05-1.82s.88-.89 1.53-.96M44 46.71c-5.56 1.56-6.97 3.7-6.34 6.05.69 2.55 3.54 5.48 6.34 8.2 2.8-2.72 5.65-5.65 6.34-8.2.63-2.34-.77-4.49-6.34-6.05m0 27.13q-.17.17-.26.33a1 1 0 0 0-.08.71 2 2 0 0 0 .34.64 2 2 0 0 0 .34-.64 1 1 0 0 0-.08-.7 1 1 0 0 0-.26-.34m0-1.92a9 9 0 0 1 1.97-.7l.18-.05c1.09-.27 2.16-.54 2.6-1.01.67-.7.01-2.3-4.05-6.27l-.7-.68-.7.68c-4.06 3.97-4.72 5.57-4.06 6.27.44.47 1.52.74 2.61 1l.18.05q1.18.3 1.97.71m-6-32.41q-.38-.04-.81.2-.43.27-.58.61c-.05.1-.1.27-.03.38q.13.14.32.14.36.05.79-.19l.02-.01q.42-.27.58-.62.1-.23.03-.36T38 39.5m4.64-14.94.24 17.57a.8.8 0 0 1-.8.82.8.8 0 0 1-.8-.8l-.25-18.44-.4-.37A4.87 4.87 0 0 1 44 15.07c1.31 0 2.5.55 3.37 1.42a4.87 4.87 0 0 1-.4 7.23l-.26 18.44a.8.8 0 0 1-.8.8.8.8 0 0 1-.79-.82l.24-17.57a4.7 4.7 0 0 1-2.72 0M41.38 49.6a.8.8 0 0 1 .8-.82c.43 0 .8.35.8.8l.1 7.8a.8.8 0 0 1-.78.82.8.8 0 0 1-.81-.8zm.23 17.01a.8.8 0 0 1 .79-.82c.44 0 .8.35.8.8l.05 3.15a.8.8 0 0 1-.79.82.8.8 0 0 1-.8-.8zm.18 13.34a.8.8 0 0 1 .79-.82c.44 0 .8.35.8.8l.02.94h1.2l.01-.94c.01-.45.37-.8.81-.8s.8.37.79.82l-.02 1.73a.8.8 0 0 1-.8.81H42.6a.8.8 0 0 1-.8-.8zm4.55-10.2a.8.8 0 0 1-.8.8.8.8 0 0 1-.8-.82l.05-3.14c0-.45.37-.8.8-.8.45 0 .8.37.8.82zm.17-12.35a.8.8 0 0 1-.8.8.8.8 0 0 1-.8-.82l.11-7.8c0-.45.37-.8.8-.8.45 0 .8.37.8.82zm-.27-39.76a3.14 3.14 0 0 0-4.48 0 3.24 3.24 0 0 0 2.24 5.5c.87 0 1.66-.36 2.24-.94a3.24 3.24 0 0 0 0-4.56" />
  </symbol>
  <symbol id="icon-shop" viewBox="0 0 90 90" stroke="none">
    <path
      d="M55.28 55.545H38.883a.986.986 0 0 0-.987.989c0 .544.44.989.986.989H55.28a1.332 1.332 0 0 1 1.141 2.02L51.99 66.95a2.97 2.97 0 0 1-2.535 1.44h-8.564a2.96 2.96 0 0 1-2.845-2.17L34.323 52.78a2.966 2.966 0 0 0-2.847-2.17h-2.443a.988.988 0 0 0 0 1.978h2.443c.44 0 .83.298.95.723l3.723 13.438a4.94 4.94 0 0 0 4.745 3.617h8.564c1.72 0 3.338-.92 4.221-2.397l4.432-7.406c.308-.514.47-1.102.47-1.703a3.306 3.306 0 0 0-3.298-3.308zM37.897 72.334a2.963 2.963 0 0 0-2.956 2.963 2.96 2.96 0 0 0 2.956 2.964 2.963 2.963 0 0 0 2.955-2.964 2.963 2.963 0 0 0-2.955-2.963m0 3.95a.99.99 0 0 1 0-1.978.99.99 0 0 1 0 1.978M51.682 72.334a2.96 2.96 0 0 0-2.955 2.963 2.96 2.96 0 0 0 2.955 2.964 2.96 2.96 0 0 0 2.956-2.964 2.963 2.963 0 0 0-2.956-2.963m0 3.95a.99.99 0 0 1 0-1.978.99.99 0 0 1 0 1.978" />
    <path
      d="M33.708 65.203a7 7 0 0 1-1.723.217H12.288c-3.8 0-6.894-3.1-6.894-6.914v-29.63a.99.99 0 0 1 .986-.99h5.908v3.95c0 .545.44.99.986.99a.99.99 0 0 0 .986-.99v-3.95H30.02v3.95c0 .545.44.99.986.99a.99.99 0 0 0 .986-.99v-3.95h5.908a.99.99 0 0 1 .986.99v24.691a.986.986 0 1 0 1.972 0V28.875a2.963 2.963 0 0 0-2.956-2.964h-5.908v-2.964c0-5.447-4.418-9.878-9.85-9.878s-9.85 4.43-9.85 9.878v2.964H6.385a2.963 2.963 0 0 0-2.955 2.964v29.63c0 4.9 3.977 8.89 8.863 8.89H31.99c.737 0 1.457-.09 2.2-.275a.987.987 0 0 0 .716-1.198.984.984 0 0 0-1.193-.719zM14.26 22.95c0-4.355 3.534-7.9 7.877-7.9s7.878 3.545 7.878 7.9v2.964H14.257V22.95z" />
  </symbol>
  <symbol id="icon-sport" viewBox="0 0 90 90" stroke="none">
    <path
      d="M9.124 26.637a.563.563 0 0 0 .305-.736 17.8 17.8 0 0 1-1.357-6.714c.286-.522 1.6-2.776 4.124-5.001a20.1 20.1 0 0 1 5.57-3.494 20 20 0 0 1 1.628-.595c-.24 3.236-1.856 5.525-3.559 7.937-1.614 2.287-3.283 4.651-3.93 7.975a.563.563 0 0 0 1.106.215c.6-3.087 2.199-5.351 3.744-7.54.924-1.309 1.879-2.661 2.586-4.153.739-1.556 1.132-3.118 1.2-4.761a22 22 0 0 1 4.89-.657v17.004a.563.563 0 1 0 1.125 0V9.113c1.693.04 3.328.26 4.89.657.067 1.643.461 3.206 1.2 4.761.707 1.492 1.662 2.844 2.585 4.152 1.546 2.19 3.144 4.454 3.744 7.541a.563.563 0 0 0 1.106-.215c-.646-3.324-2.315-5.689-3.93-7.975-1.703-2.412-3.318-4.7-3.558-7.937a20 20 0 0 1 1.627.595 20.1 20.1 0 0 1 5.57 3.494c2.526 2.225 3.84 4.48 4.124 5.001a17.8 17.8 0 0 1-1.357 6.714.563.563 0 1 0 1.04.431 18.9 18.9 0 0 0 1.444-7.284 18.983 18.983 0 0 0-5.58-13.469A18.99 18.99 0 0 0 25.994 0a18.983 18.983 0 0 0-13.468 5.579 18.99 18.99 0 0 0-5.58 13.469c0 2.522.486 4.973 1.443 7.284a.563.563 0 0 0 .736.305m33.383-14.565a17.7 17.7 0 0 1 1.282 4.837 22 22 0 0 0-3.217-3.535 21.023 21.023 0 0 0-8.001-4.462c.064-1.237.476-2.198 1.255-2.93.719-.675 1.69-1.109 2.66-1.466a18 18 0 0 1 2.18 1.86 17.9 17.9 0 0 1 3.841 5.696m-7.162-8.317c-.827.35-1.628.785-2.29 1.407-.95.892-1.474 2.026-1.593 3.451a23 23 0 0 0-4.906-.627v-6.85c2.221.067 4.376.537 6.413 1.398q1.238.525 2.376 1.22m-16.327-1.22a17.8 17.8 0 0 1 6.412-1.4v6.851a23 23 0 0 0-4.905.627c-.119-1.425-.643-2.558-1.593-3.451-.662-.622-1.463-1.058-2.29-1.407q1.136-.697 2.376-1.22M9.48 12.071a17.9 17.9 0 0 1 3.841-5.697A18 18 0 0 1 15.5 4.516c.97.357 1.942.791 2.66 1.467.78.732 1.192 1.692 1.256 2.929a21 21 0 0 0-8.002 4.462 22 22 0 0 0-3.217 3.535 17.7 17.7 0 0 1 1.283-4.837M49.222 28.785H2.754A2.757 2.757 0 0 0 0 31.539a2.757 2.757 0 0 0 2.754 2.754h1.554c.242.283.747.894 1.4 1.814.852 1.202 2.139 3.193 3.426 5.85a48.6 48.6 0 0 1 3.096 8.258l.003.014q.17.614.324 1.234c1.032 4.155 1.555 8.52 1.555 12.974a.563.563 0 0 0 .86.479l6.224-3.858 4.425 3.806a.56.56 0 0 0 .735 0l4.425-3.806 6.224 3.858a.562.562 0 0 0 .86-.479c0-4.454.523-8.82 1.555-12.974a51 51 0 0 1 .327-1.248 48.6 48.6 0 0 1 3.096-8.258c1.287-2.657 2.574-4.648 3.426-5.85.653-.92 1.157-1.531 1.4-1.814h1.553a2.757 2.757 0 0 0 2.755-2.754 2.76 2.76 0 0 0-2.755-2.754m-10.37 20.46a25 25 0 0 1-4.134-2.854 56 56 0 0 0 2.585-4.717 26.6 26.6 0 0 0 3.018 3.247 51 51 0 0 0-1.47 4.324m-12.049 7.142a50 50 0 0 0 3.902-4.298l.264-.33c1.943 1.738 3.95 3.216 5.995 4.413-1.591 1.317-4.096 2.773-6.148 3.556a46 46 0 0 1-4.013-3.341m-5.637 3.338a23 23 0 0 1-3.775-1.946 20 20 0 0 1-2.266-1.673c2.005-1.185 3.975-2.64 5.883-4.348q.131.166.264.331a50 50 0 0 0 3.902 4.298 46 46 0 0 1-4.008 3.338m-9.51-14.805a26.6 26.6 0 0 0 3.018-3.246 56 56 0 0 0 2.585 4.717 25 25 0 0 1-4.133 2.854 51 51 0 0 0-1.47-4.324m17.69-2.808a27.3 27.3 0 0 0 2.845 3.456q.52.534 1.067 1.035A53 53 0 0 1 30.83 50.1a45 45 0 0 1-.879-.855 51 51 0 0 1-3.237-3.572 60 60 0 0 0 2.633-3.561m-1.262-.154a60 60 0 0 1-2.096 2.817 59 59 0 0 1-2.685-3.677q.312-.492.604-.998a28 28 0 0 0 2.081-4.459 27.8 27.8 0 0 0 2.686 5.457q-.285.425-.59.86m-5.114.645a60 60 0 0 0 2.293 3.07 51 51 0 0 1-3.227 3.562q-.442.442-.89.865a53 53 0 0 1-2.427-3.497q.546-.501 1.066-1.035a27.3 27.3 0 0 0 2.845-3.456q.167.244.34.491m-4.01 2.199q-.415.424-.847.828a55 55 0 0 1-2.676-4.973 28 28 0 0 0 1.876-3c.532-.985.918-1.84 1.181-2.485a61 61 0 0 0 3.46 5.933 26.3 26.3 0 0 1-2.994 3.697m-1.098 2.554a54 54 0 0 0 2.453 3.51c-1.895 1.702-3.85 3.147-5.838 4.315a53 53 0 0 0-1.042-4.822 26 26 0 0 0 4.428-3.003m4.3 4.043-.323-.404q.5-.47.994-.964a52 52 0 0 0 3.155-3.468 52 52 0 0 0 3.156 3.468q.494.494.993.964l-.322.404a49 49 0 0 1-3.827 4.21 49 49 0 0 1-3.826-4.21M37.5 55.181c-1.988-1.168-3.943-2.613-5.838-4.314a54 54 0 0 0 2.452-3.511 26 26 0 0 0 4.428 3.003A52 52 0 0 0 37.5 55.18m-2.055-12.336a55 55 0 0 1-1.581 2.785q-.432-.404-.847-.828a26.3 26.3 0 0 1-2.994-3.697 61 61 0 0 0 3.46-5.933c.263.645.649 1.5 1.18 2.485.465.86 1.084 1.893 1.877 3-.334.707-.7 1.44-1.095 2.188m.225-5.694a24 24 0 0 1-1.323-2.858h4.698c-.344 1.15-.993 2.996-1.96 5.176a27 27 0 0 1-1.415-2.318m-6.313 2.912a27 27 0 0 1-.291-.49c-1.23-2.122-1.986-4.11-2.341-5.28h5.935a60 60 0 0 1-3.303 5.77m-6.446-.49a28 28 0 0 1-.292.49 60 60 0 0 1-3.302-5.77h5.935c-.356 1.17-1.112 3.158-2.34 5.28m-6.589-2.451c-.37.686-.844 1.487-1.43 2.347-.967-2.18-1.616-4.026-1.96-5.176h4.698c-.24.63-.66 1.63-1.308 2.829M5.764 34.293h5.345c-.626.812-1.733 2.05-3.257 3.004a35 35 0 0 0-2.088-3.004m2.672 3.967c1.66-1.034 2.853-2.352 3.542-3.243.364 1.152 1.045 3.098 2.155 5.514a26 26 0 0 1-2.93 3.274 48 48 0 0 0-1.078-2.385 46 46 0 0 0-1.69-3.16m6.353 19.033a23.4 23.4 0 0 0 5.228 3.17l-4.787 2.968a56 56 0 0 0-.441-6.138m11.2 6.401-3.838-3.3a47 47 0 0 0 3.837-3.227 47 47 0 0 0 3.838 3.227zm10.758-.263-4.774-2.96c1.769-.767 3.733-1.915 5.196-3.028a56 56 0 0 0-.422 5.988m5.105-22.01q-.57 1.171-1.079 2.384a26 26 0 0 1-2.93-3.274c1.11-2.416 1.792-4.362 2.155-5.514.69.891 1.883 2.21 3.543 3.243a46 46 0 0 0-1.69 3.16m2.273-4.124c-1.524-.954-2.631-2.192-3.257-3.004h5.345a35 35 0 0 0-2.089 3.004m5.097-4.13H2.754a1.63 1.63 0 0 1-1.628-1.628c0-.898.73-1.628 1.628-1.628h46.468c.898 0 1.628.73 1.628 1.628a1.63 1.63 0 0 1-1.628 1.628" />
  </symbol>
  <symbol id="icon-transport" viewBox="0 0 90 90" fill="none">
    <path stroke-linecap="round" stroke-linejoin="round" stroke-miterlimit="10"
      d="M22.94 42.76H5M5.6 11.61H46c3.72 0 6.13 2.59 8.1 5.96l2.53 4.29 7.13 12.1.79 1.33 1.84 3.12.76 1.3 1.3 2.2a4.44 4.44 0 0 1-3.91 6.6H47.3l-.74-1.1" />
    <path stroke-linecap="round" stroke-linejoin="round" stroke-miterlimit="10"
      d="M38.47 33.99H27.84a2.2 2.2 0 0 1-2.15-2.21v-7.71c0-1.22.96-2.21 2.15-2.21h10.63c1.19 0 2.15.99 2.15 2.2v7.72c0 1.22-.96 2.2-2.15 2.2M18.9 24.56v15.15H8.28V24.56c0-1.49 1.38-2.7 3.06-2.7h4.5c1.68 0 3.06 1.21 3.06 2.7M10.15 31.56h1.4M66.19 38.13h-2.7c-1.22.01-1.61-.88-1.66-1.82v-.75h2.84zM63.76 33.96l-.03.03H48.62a1.9 1.9 0 0 1-1.87-1.89l-.14-8.3a1.9 1.9 0 0 1 1.87-1.94h8.15zM37.85 14.62H10.3M7.83 14.62H5.6M5.43 53.96h62.95M4.57 55.75h60.27M21.04 47.41a6.46 6.46 0 0 1-6.38 6.55 6.46 6.46 0 0 1-6.38-6.55c0-1.82.73-3.47 1.9-4.65h8.97a6.6 6.6 0 0 1 1.9 4.65" />
    <path stroke-linecap="round" stroke-linejoin="round" stroke-miterlimit="10"
      d="M33.8 47.41a6.46 6.46 0 0 1-6.37 6.55 6.47 6.47 0 0 1-6.38-6.55 6.6 6.6 0 0 1 1.9-4.65h8.96a6.6 6.6 0 0 1 1.9 4.65" />
    <path stroke-linecap="round" stroke-linejoin="round" stroke-miterlimit="10"
      d="M46.56 47.41a6.46 6.46 0 0 1-6.38 6.55 6.47 6.47 0 0 1-6.38-6.55 6.6 6.6 0 0 1 1.9-4.65h7.73zM6.73 53.67c-1.82-1.6-3.38-5.56-4.41-10.9A82 82 0 0 1 1 27.6C1 12.77 4.38.75 8.54.75c2.25 0 4.26 3.49 5.64 9.02M43.44 42.76h25.38M14.64 49.55a1.8 1.8 0 0 0 1.78-1.82c0-1-.8-1.83-1.78-1.83a1.8 1.8 0 0 0-1.78 1.83c0 1 .8 1.82 1.78 1.82M27.42 49.55a1.8 1.8 0 0 0 1.78-1.82c0-1-.8-1.83-1.78-1.83a1.8 1.8 0 0 0-1.78 1.83c0 1 .8 1.82 1.78 1.82" />
    <path stroke-linecap="round" stroke-linejoin="round" stroke-miterlimit="10"
      d="M40.18 49.55a1.8 1.8 0 0 0 1.78-1.82c0-1-.8-1.83-1.78-1.83a1.8 1.8 0 0 0-1.78 1.83c0 1 .8 1.82 1.78 1.82M4.9 39.7h62.28M35.7 42.76h-3.8" />
  </symbol>
</svg>
