<svg xmlns="http://www.w3.org/2000/svg" style="display: none;">
  <symbol id="icon-drama" viewBox="0 0 90 90">
    <path stroke-width=".5"
      d="M21.5 39.14a4.43 4.43 0 0 0-6.14 1.43 4.4 4.4 0 0 0-.56 3.4.33.33 0 0 0 .33.27h.08a.34.34 0 0 0 .26-.42 3.8 3.8 0 0 1 1.5-3.97q.6-.44 1.35-.6a3.74 3.74 0 0 1 4.52 2.85.35.35 0 0 0 .41.26.3.3 0 0 0 .26-.28v-.13a4.5 4.5 0 0 0-2-2.8ZM34.64 48.02a.35.35 0 0 0-.26.4 4.42 4.42 0 0 1-5 5.39A4.4 4.4 0 0 1 26.52 52a4 4 0 0 1-.7-1.6.34.34 0 0 0-.63-.1.4.4 0 0 0-.04.26 5.14 5.14 0 0 0 4.95 3.99q.57 0 1.15-.13A5.1 5.1 0 0 0 35 48.14a.3.3 0 0 0-.36-.12Z" />
    <path stroke-width=".5"
      d="M79.25 34.36c-3.9.51-8.76 1.16-13.5.06-4.74-1.11-8.79-3.85-12.1-6.03q-2.2-1.55-4.6-2.79a83 83 0 0 0-1.29-6.87c-.7-3.05-1.68-4.74-3.1-5.32-2.15-.86-4.87.93-8.29 3.27-3.28 2.2-7.36 4.92-12.11 6.02-4.76 1.1-9.62.44-13.5-.06-4.1-.54-7.36-.97-8.9.75-1.02 1.15-1.2 3.1-.5 6.16 1 4.35 3.96 15.46 9.94 24.42 5.31 7.97 11.47 11.99 18.35 11.99a19 19 0 0 0 4.38-.53 17 17 0 0 0 7.72-4c2.33 8.67 7.14 14.07 14.23 15.72q2.18.52 4.42.53c18.88 0 26.77-30 28.24-36.42.7-3.06.54-5-.49-6.16-1.55-1.74-4.8-1.29-8.9-.74Zm-45.38 30.4c-8.35 1.94-15.76-1.87-22-11.15-5.9-8.9-8.84-19.9-9.83-24.22-.64-2.78-.53-4.59.33-5.57 1.3-1.45 4.4-1.04 8.28-.52s8.89 1.17 13.74 0 9.02-3.82 12.33-6.04 5.88-3.93 7.68-3.2q1.76.69 2.7 4.82c.45 1.96.85 4.16 1.16 6.4a4 4 0 0 0-2.95-.16c-1.43.58-2.42 2.27-3.12 5.32-.25 1.12-.68 3.2-1.09 5.88a4.45 4.45 0 0 0-5.43-1.68 4.46 4.46 0 0 0-2.63 5.09.34.34 0 0 0 .34.27h.08a.4.4 0 0 0 .21-.16.4.4 0 0 0 .04-.27 3.83 3.83 0 0 1 2.64-4.61 3.73 3.73 0 0 1 4.61 2.58c-.92 6.4-.97 12.9-.14 19.31q.3 2.02.74 3.83a16.4 16.4 0 0 1-7.69 4.07Zm54.1-23.66c-.92 4.16-9.92 40.47-31.84 35.37-8.07-1.86-13-8.51-14.65-19.72s.65-22.87 1.4-26.18c.63-2.78 1.52-4.35 2.7-4.83q.45-.17.92-.16c1.73 0 4 1.52 6.77 3.37 3.33 2.22 7.48 4.98 12.33 6.12s9.79.47 13.75 0c3.95-.48 6.99-.93 8.28.52q1.29 1.38.34 5.51Z" />
    <path stroke-width=".5"
      d="M57.88 47.4a.4.4 0 0 0-.14-.37l-.12-.05a.33.33 0 0 0-.41.26 3.75 3.75 0 0 1-6.88 1.16c-.54-.86-.7-1.9-.48-2.88a.35.35 0 0 0-.26-.42.35.35 0 0 0-.41.26 4.55 4.55 0 0 0 3.34 5.4q.5.12 1 .12a4.45 4.45 0 0 0 4.36-3.48ZM75.88 51.22a.35.35 0 0 0-.42.26 3.75 3.75 0 0 1-6.88 1.17c-.53-.86-.7-1.89-.48-2.88a.36.36 0 0 0-.26-.41.3.3 0 0 0-.36.13l-.05.13a4.54 4.54 0 0 0 3.33 5.4q.5.1 1 .11a4.45 4.45 0 0 0 4.35-3.49.36.36 0 0 0-.23-.42ZM59.98 60.8a5 5 0 0 0-5.29 2.02 5 5 0 0 0-.81 1.97.4.4 0 0 0 .26.28.34.34 0 0 0 .36-.14l.05-.12a4.5 4.5 0 0 1 3.56-3.4q.86-.15 1.71.05a4.47 4.47 0 0 1 3.3 5.32.36.36 0 0 0 .25.42h.09a.34.34 0 0 0 .33-.27 5.2 5.2 0 0 0-3.81-6.12Z" />
  </symbol>
  <symbol id="icon-horeca" viewBox="0 0 68 68" stroke="none">
    <path
      d="M29.57 60.44a.7.7 0 0 1 .58-.78c.37-.05.71.2.76.58l.38 2.62v.01c.2 1.65-.67 2.75-1.93 3.33q-.8.36-1.75.43a6 6 0 0 1-1.82-.13c-1.56-.37-2.87-1.38-3-3.02l-.43-2.98a.7.7 0 0 1 .57-.78c.37-.06.72.2.77.58l.44 3v.06c.07.94.93 1.55 1.96 1.8q.69.16 1.41.1.7-.05 1.3-.31c.73-.34 1.25-.98 1.13-1.91zm1.56-47.13c.48 0 .84.39.81.87a.94.94 0 0 1-.91.88.8.8 0 0 1-.82-.88.94.94 0 0 1 .92-.87M21.08 23.99a.54.54 0 1 1-1.06-.27c.56-2.26 2-4.22 3.99-5.62a12.3 12.3 0 0 1 7.07-2.17c2.67 0 5.14.82 7.07 2.17 2 1.4 3.43 3.36 3.99 5.62.07.3-.1.6-.4.67a.54.54 0 0 1-.66-.4A8.7 8.7 0 0 0 37.54 19c-1.76-1.23-4.01-1.97-6.46-1.97s-4.7.74-6.46 1.97A8.7 8.7 0 0 0 21.08 24m-4.85 23.23a.55.55 0 0 1-.54-.55c0-.3.25-.55.55-.54l26.13.23c.3 0 .54.25.54.55s-.25.55-.54.54zm.6-4.2a.55.55 0 0 1-.53-.55c0-.3.24-.54.54-.54l26.14.23c.3 0 .54.25.54.56 0 .3-.25.54-.55.54zm.26-4.19a.55.55 0 0 1-.53-.55c0-.3.24-.55.54-.54l26.14.23c.3 0 .54.25.54.55s-.25.55-.55.55zM18.01 27a.55.55 0 0 1-.54-.55c0-.3.25-.55.54-.55l26.14.24c.3 0 .54.25.54.55s-.25.55-.55.54zm-7.63 10.34a.7.7 0 0 1-.74.62.7.7 0 0 1-.61-.74l2.92-32.2a2.97 2.97 0 0 1 2.9-2.7h5.3c.38 0 .69.31.69.7 0 .37-.3.68-.68.68h-5.3q-.6.01-1.05.42a1.6 1.6 0 0 0-.5 1.02zM29.95 3.7a.7.7 0 0 1-.68-.69c0-.38.3-.69.68-.69h23.22c.72 0 1.42.3 1.97.78.54.48.94 1.14 1.05 1.88l4.85 32.71c.05.38-.2.73-.58.78a.7.7 0 0 1-.77-.58L55.37 8.68l-1.75 18.43a.7.7 0 0 1-.74.62.7.7 0 0 1-.61-.75L54.35 5v-.13a1.16 1.16 0 0 0-.91-1.14l-.3-.03zm21.34 34.97a.7.7 0 0 1 .73-.62c.38.03.65.37.62.75L50.39 63.3c-.16 1.77-1.4 2.82-2.83 3.2a4.8 4.8 0 0 1-3.02-.22 3 3 0 0 1-1.84-3.14l.2-2.2c.21-2.4-.29-2.88-1.2-2.96q-.46-.04-1.06-.03h-20.7l-1.74-.02h-1.3c-1.14 0-1.74.12-2.02.47-.32.4-.42 1.19-.53 2.45l-.07.8c-.07.84-.14 1.7-.3 2.58-.23 1.3-1.37 2.05-2.7 2.29a5.5 5.5 0 0 1-3.06-.38c-1.01-.48-1.7-1.33-1.59-2.54L8.16 47.3a.7.7 0 0 1 .74-.62c.37.04.64.37.61.75L7.98 63.74c-.05.53.3.92.82 1.17q.48.22 1.07.3.6.06 1.18-.04c.8-.14 1.49-.53 1.6-1.17.14-.77.21-1.62.28-2.45l.07-.81c.14-1.54.28-2.52.83-3.2.58-.72 1.48-.97 3.07-.98l1.31.01 1.74.01h20.69q.63-.01 1.19.04c1.75.17 2.74.9 2.42 4.45l-.2 2.2c-.08.87.38 1.46 1.05 1.76q.46.22 1.01.25.58.05 1.11-.1c.93-.24 1.72-.9 1.82-2zm9.85 8.46a.68.68 0 1 1 1.33-.25l2.97 15.8v.02a3.3 3.3 0 0 1-1.65 3.52q-.73.41-1.6.52-.84.1-1.7-.1a4.2 4.2 0 0 1-3.37-3.47l-.6-3.73-.01-.11c-.1-.6-.2-1.23-2.52-1.1a.7.7 0 0 1-.7-.66.7.7 0 0 1 .64-.72c3.54-.19 3.73 1.07 3.92 2.27 0 .03-.02-.08.01.1l.6 3.74a2.9 2.9 0 0 0 2.31 2.35q.62.14 1.26.06a3 3 0 0 0 1.1-.35c.68-.38 1.12-1.1.97-2.12z" />
  </symbol>
  <symbol id="icon-medicine" viewBox="0 0 88 87" stroke="none">
    <path
      d="M36.05 24.73c-2.4-2.12-3.85-1.76-6.68-1.07-1.2.29-2.61.63-4.37.9-2.57.38-5.15.5-7.64.18a17 17 0 0 1-7.14-2.5 1 1 0 0 0-.44-.13 1 1 0 0 0-.44.14.8.8 0 0 0-.34.83 5.5 5.5 0 0 0 3.79 4.34l.52.16.05.55a1.8 1.8 0 0 0 .85 1.33 1.7 1.7 0 0 0 1.57.07l1.03-.5.1 1.16a1.7 1.7 0 0 0 .85 1.33 1.7 1.7 0 0 0 1.57.06l.77-.37.31.8a1.7 1.7 0 0 0 1.18 1.06 1.7 1.7 0 0 0 1.52-.38l.86-.77.42 1.08a1.7 1.7 0 0 0 1.18 1.05 1.7 1.7 0 0 0 1.52-.39l.56-.5.53.53q.46.46 1.48.8a14 14 0 0 0 8.1 0 .8.8 0 0 1 1.01.5.8.8 0 0 1-.5 1.03 15.67 15.67 0 0 1-9.11 0q-.92-.3-1.57-.73a3.3 3.3 0 0 1-2.4.34 3.3 3.3 0 0 1-1.82-1.2 3.3 3.3 0 0 1-2.15.22 3.3 3.3 0 0 1-1.94-1.35 3.3 3.3 0 0 1-3.74-2.02q-.3.04-.62.03a3.2 3.2 0 0 1-2.64-1.52q-.3-.46-.42-.97a7 7 0 0 1-4.2-4.46q-.16-.48-.25-1a2.45 2.45 0 0 1 2.34-2.87q.68 0 1.31.38c2 1.27 4.2 1.97 6.5 2.27 2.32.3 4.76.18 7.2-.19 1.75-.26 3.1-.59 4.24-.86 3.36-.82 5.07-1.24 8.09 1.42q.66.58 1.42 1.4.76.8 1.64 1.84c.29.34.25.85-.09 1.15a.8.8 0 0 1-1.12-.1q-.86-1-1.58-1.77-.7-.76-1.32-1.3m13 3.07a.8.8 0 0 1-1.12.09.8.8 0 0 1-.09-1.14 44 44 0 0 1 1.64-1.85q.75-.8 1.43-1.4c3.01-2.65 4.72-2.24 8.08-1.42 1.14.28 2.5.6 4.23.87 2.46.36 4.9.48 7.22.18 2.29-.3 4.49-1 6.49-2.27a2.37 2.37 0 0 1 3.5 1.1q.26.65.15 1.39a7 7 0 0 1-.63 1.97 7 7 0 0 1-3.82 3.5 3.3 3.3 0 0 1-3.06 2.49q-.32 0-.62-.03a3.4 3.4 0 0 1-1.43 1.65 3.2 3.2 0 0 1-2.31.37 3.3 3.3 0 0 1-3.5 1.35l-.6-.21a3.33 3.33 0 0 1-3.39 1.19q-.42-.12-.82-.34-.65.42-1.56.74a15.7 15.7 0 0 1-9.12 0 .8.8 0 0 1-.5-1.03.8.8 0 0 1 1-.51q1.14.38 2.58.52c1.76.17 3.85.05 5.53-.51q1.02-.35 1.48-.8l.53-.53.56.5a1.67 1.67 0 0 0 2.24 0q.3-.27.46-.67l.42-1.08.85.77a1.67 1.67 0 0 0 2.24 0q.3-.27.46-.67l.31-.8.77.36a1.7 1.7 0 0 0 1.57-.06 1.7 1.7 0 0 0 .85-1.33l.11-1.16 1.03.5a1.7 1.7 0 0 0 1.57-.07 1.8 1.8 0 0 0 .85-1.33l.05-.55.52-.16a5.4 5.4 0 0 0 3.8-4.34 1 1 0 0 0-.06-.47.8.8 0 0 0-.73-.5q-.22 0-.45.13a17 17 0 0 1-7.13 2.5c-2.49.32-5.07.2-7.64-.19-1.75-.26-3.18-.6-4.38-.9-2.82-.68-4.27-1.03-6.67 1.08q-.6.54-1.32 1.3t-1.57 1.77m8.96-2.46c.43.11.68.56.56 1a.8.8 0 0 1-.98.56 3.4 3.4 0 0 0-3.78 1.45.8.8 0 0 1-1.1.23.8.8 0 0 1-.23-1.12A5.1 5.1 0 0 1 58 25.34m-27.6 1.56a.8.8 0 0 1-.99-.57.8.8 0 0 1 .57-1 5 5 0 0 1 5.53 2.13c.24.37.14.87-.23 1.12a.8.8 0 0 1-1.1-.23 3.5 3.5 0 0 0-3.79-1.45m20.4 12.81a1.4 1.4 0 0 0-.81-.2q-.25.02-.33.15-.06.13.04.36.16.36.58.62c.22.14.54.23.8.2q.25-.02.33-.15.07-.14-.03-.36-.16-.36-.58-.62m-.99-1.82c.57-.06 1.2.08 1.79.42.58.34 1.01.84 1.25 1.36a2 2 0 0 1-.04 1.8c-.7 1.5-2.02 2.57-3.64 3.4-.85.39-1.6.72-2.5 1.02 4.83 1.87 5.97 4.44 5.2 7.3-.8 2.94-3.8 6.04-6.72 8.9l.65.64c4.96 4.84 5.41 7.17 4.1 8.55-.76.81-2.06 1.13-3.38 1.47l-.18.04q-.51.12-.9.27l.19.3c.37.63.42 1.3.24 1.97a4 4 0 0 1-.67 1.27c.94.6 2.14 1 3.26 1 .44 0 .8.37.8.82a.8.8 0 0 1-.8.81 8 8 0 0 1-4.46-1.5 8 8 0 0 1-4.47 1.5.8.8 0 0 1-.8-.81.8.8 0 0 1 .8-.82c1.12 0 2.32-.4 3.26-1q-.47-.6-.67-1.27a2.5 2.5 0 0 1 .43-2.27 9 9 0 0 0-.9-.27l-.18-.04c-1.32-.33-2.62-.66-3.39-1.47-1.3-1.38-.85-3.7 4.1-8.55l.66-.64c-2.94-2.86-5.93-5.96-6.72-8.9-.77-2.85.38-5.43 5.2-7.3q-1.35-.44-2.52-1.03c-1.6-.82-2.91-1.88-3.62-3.38q-.44-.89-.03-1.8c.22-.53.66-1.03 1.24-1.37a3 3 0 0 1 1.79-.41c.65.07 1.21.4 1.53.96.31.56.31 1.21.05 1.82q-.33.77-1.14 1.3l-.1.07q-.33.18-.66.29.72.6 1.66 1.07c1.3.67 2.88 1.17 4.48 1.63 1.36-.39 3.25-.94 4.47-1.62q.95-.48 1.67-1.08-.4-.14-.76-.36a3 3 0 0 1-1.14-1.3c-.26-.6-.27-1.26.05-1.82s.88-.89 1.53-.96M44 46.71c-5.56 1.56-6.97 3.7-6.34 6.05.69 2.55 3.54 5.48 6.34 8.2 2.8-2.72 5.65-5.65 6.34-8.2.63-2.34-.77-4.49-6.34-6.05m0 27.13q-.17.17-.26.33a1 1 0 0 0-.08.71 2 2 0 0 0 .34.64 2 2 0 0 0 .34-.64 1 1 0 0 0-.08-.7 1 1 0 0 0-.26-.34m0-1.92a9 9 0 0 1 1.97-.7l.18-.05c1.09-.27 2.16-.54 2.6-1.01.67-.7.01-2.3-4.05-6.27l-.7-.68-.7.68c-4.06 3.97-4.72 5.57-4.06 6.27.44.47 1.52.74 2.61 1l.18.05q1.18.3 1.97.71m-6-32.41q-.38-.04-.81.2-.43.27-.58.61c-.05.1-.1.27-.03.38q.13.14.32.14.36.05.79-.19l.02-.01q.42-.27.58-.62.1-.23.03-.36T38 39.5m4.64-14.94.24 17.57a.8.8 0 0 1-.8.82.8.8 0 0 1-.8-.8l-.25-18.44-.4-.37A4.87 4.87 0 0 1 44 15.07c1.31 0 2.5.55 3.37 1.42a4.87 4.87 0 0 1-.4 7.23l-.26 18.44a.8.8 0 0 1-.8.8.8.8 0 0 1-.79-.82l.24-17.57a4.7 4.7 0 0 1-2.72 0M41.38 49.6a.8.8 0 0 1 .8-.82c.43 0 .8.35.8.8l.1 7.8a.8.8 0 0 1-.78.82.8.8 0 0 1-.81-.8zm.23 17.01a.8.8 0 0 1 .79-.82c.44 0 .8.35.8.8l.05 3.15a.8.8 0 0 1-.79.82.8.8 0 0 1-.8-.8zm.18 13.34a.8.8 0 0 1 .79-.82c.44 0 .8.35.8.8l.02.94h1.2l.01-.94c.01-.45.37-.8.81-.8s.8.37.79.82l-.02 1.73a.8.8 0 0 1-.8.81H42.6a.8.8 0 0 1-.8-.8zm4.55-10.2a.8.8 0 0 1-.8.8.8.8 0 0 1-.8-.82l.05-3.14c0-.45.37-.8.8-.8.45 0 .8.37.8.82zm.17-12.35a.8.8 0 0 1-.8.8.8.8 0 0 1-.8-.82l.11-7.8c0-.45.37-.8.8-.8.45 0 .8.37.8.82zm-.27-39.76a3.14 3.14 0 0 0-4.48 0 3.24 3.24 0 0 0 2.24 5.5c.87 0 1.66-.36 2.24-.94a3.24 3.24 0 0 0 0-4.56" />
  </symbol>
  <symbol id="icon-shop" viewBox="0 0 90 90" stroke="none">
    <path
      d="M55.28 55.545H38.883a.986.986 0 0 0-.987.989c0 .544.44.989.986.989H55.28a1.332 1.332 0 0 1 1.141 2.02L51.99 66.95a2.97 2.97 0 0 1-2.535 1.44h-8.564a2.96 2.96 0 0 1-2.845-2.17L34.323 52.78a2.966 2.966 0 0 0-2.847-2.17h-2.443a.988.988 0 0 0 0 1.978h2.443c.44 0 .83.298.95.723l3.723 13.438a4.94 4.94 0 0 0 4.745 3.617h8.564c1.72 0 3.338-.92 4.221-2.397l4.432-7.406c.308-.514.47-1.102.47-1.703a3.306 3.306 0 0 0-3.298-3.308zM37.897 72.334a2.963 2.963 0 0 0-2.956 2.963 2.96 2.96 0 0 0 2.956 2.964 2.963 2.963 0 0 0 2.955-2.964 2.963 2.963 0 0 0-2.955-2.963m0 3.95a.99.99 0 0 1 0-1.978.99.99 0 0 1 0 1.978M51.682 72.334a2.96 2.96 0 0 0-2.955 2.963 2.96 2.96 0 0 0 2.955 2.964 2.96 2.96 0 0 0 2.956-2.964 2.963 2.963 0 0 0-2.956-2.963m0 3.95a.99.99 0 0 1 0-1.978.99.99 0 0 1 0 1.978" />
    <path
      d="M33.708 65.203a7 7 0 0 1-1.723.217H12.288c-3.8 0-6.894-3.1-6.894-6.914v-29.63a.99.99 0 0 1 .986-.99h5.908v3.95c0 .545.44.99.986.99a.99.99 0 0 0 .986-.99v-3.95H30.02v3.95c0 .545.44.99.986.99a.99.99 0 0 0 .986-.99v-3.95h5.908a.99.99 0 0 1 .986.99v24.691a.986.986 0 1 0 1.972 0V28.875a2.963 2.963 0 0 0-2.956-2.964h-5.908v-2.964c0-5.447-4.418-9.878-9.85-9.878s-9.85 4.43-9.85 9.878v2.964H6.385a2.963 2.963 0 0 0-2.955 2.964v29.63c0 4.9 3.977 8.89 8.863 8.89H31.99c.737 0 1.457-.09 2.2-.275a.987.987 0 0 0 .716-1.198.984.984 0 0 0-1.193-.719zM14.26 22.95c0-4.355 3.534-7.9 7.877-7.9s7.878 3.545 7.878 7.9v2.964H14.257V22.95z" />
  </symbol>
</svg>
