<svg xmlns="http://www.w3.org/2000/svg" style="display: none;">
  <symbol id="hero-line-1" viewBox="0 0 940 154" fill="none">
    <path d="M.5 78.8c10.3-73 212.6-160.4 939 74" />
  </symbol>
  <symbol id="hero-line-2" viewBox="0 0 803 126" fill="none">
    <path d="M.5 71.8c12-64.1 189.2-143.3 802 53.5" />
  </symbol>
  <symbol id="hero-line-3" viewBox="0 0 701 210" fill="none">
    <path d="M.5 61.5c16.3-69.7 179-137.6 699.5 148" />
  </symbol>
  <symbol id="hero-line-4" viewBox="0 0 625 82" fill="none">
    <path d="M.5 81.7c9-57.2 146.4-140.7 624-17.5" />
  </symbol>
  <symbol id="hero-line-5" viewBox="0 0 543 255" fill="none">
    <path d="M.4 55.6C36.6-15 195.5-74 542 254" />
  </symbol>
  <symbol id="hero-line-6" viewBox="0 0 408 167" fill="none">
    <path d="M.5 50.4C26.8-5.9 145-61.6 407.5 166" />
  </symbol>
  <symbol id="hero-line-7" viewBox="0 0 311 59" fill="none">
    <path d="M.5 58.4c13.6-43.7 94.8-104.8 310 0" />
  </symbol>
  <symbol id="hero-line-8" viewBox="0 0 279 124" fill="none">
    <path d="M.5 45.2c20.8-47 105.6-97.3 278 77.5" />
  </symbol>
  <symbol id="hero-line-9" viewBox="0 0 176 46" fill="none">
    <path d="M.5 38C10.8 8.3 60.2-32 175 45" />
  </symbol>
  <symbol id="hero-line-10" viewBox="0 0 146 117" fill="none">
    <path d="M.4 25.8c17.2-32.3 70.2-59.5 145 90.5" />
  </symbol>
  <symbol id="hero-link" viewBox="0 0 46 50">
    <path fill="#4795d1" stroke="#fff" stroke-width=".5" d="M42.9 8.1 14.5 24.6l-14-7.8L29.1.3z" />
    <path fill="#74bbf3" stroke="#fff" stroke-width=".5" d="M44.6 24.3 16.3 40.8 2.3 33l28.5-16.5z" />
    <path fill="#da1f27" stroke="#fff" stroke-width=".5" d="m30.9 49-13.4-7.5 13.4-7.7z" />
  </symbol>
</svg>
