<svg xmlns="http://www.w3.org/2000/svg" style="display: none;">
  <symbol id="icon-arrow" viewBox="0 0 16 16" stroke="none">
    <path d="M8.85 2.8a.5.5 0 0 0-.7.73l4.17 3.97H2.5a.5.5 0 0 0 0 1h9.82l-4.16 3.97a.5.5 0 1 0 .69.73l4.94-4.72a.67.67 0 0 0 0-.96z" />
  </symbol>
  <symbol id="icon-close" viewBox="0 0 38 38" stroke="none">
    <path
      d="m19 20.12-8.3 8.3a.8.8 0 0 1-.55.24.7.7 0 0 1-.58-.23.8.8 0 0 1-.25-.56q0-.31.25-.56l8.3-8.31-8.3-8.3a.8.8 0 0 1-.23-.55.7.7 0 0 1 .23-.58.8.8 0 0 1 .56-.25q.31 0 .56.25l8.31 8.3 8.3-8.3a.8.8 0 0 1 .55-.23q.32-.03.58.23t.25.56q0 .31-.25.56L20.13 19l8.3 8.3a.8.8 0 0 1 .23.55q.03.32-.23.58a.8.8 0 0 1-.56.25q-.31 0-.56-.25z" />
  </symbol>
  <symbol id="icon-dots" viewBox="0 0 27 5" stroke="none">
    <path d="M5 2.5a2.5 2.5 0 1 1-5 0 2.5 2.5 0 0 1 5 0M16 2.5a2.5 2.5 0 1 1-5 0 2.5 2.5 0 0 1 5 0M27 2.5a2.5 2.5 0 1 1-5 0 2.5 2.5 0 0 1 5 0" />
  </symbol>
  <symbol id="icon-hand" viewBox="0 0 19 34" stroke="none">
    <path
      d="M17.03 18.45h-.44q-.48.01-.82.31v-1.9c0-.8-.65-1.44-1.45-1.44h-.53c-.4 0-.78.16-1.04.43v-.3c0-.78-.65-1.43-1.45-1.43h-.53c-.4 0-.78.17-1.04.43V9.63c0-.79-.65-1.43-1.45-1.43h-.53c-.8 0-1.45.64-1.45 1.43v13.84l-3.2-4.81a1.46 1.46 0 0 0-2.01-.41l-.44.29c-.33.2-.55.53-.63.9q-.11.59.21 1.08l5.5 8.28c.08.16 2.2 3.89 6.15 4.48q.59.1 1.14.1a5.7 5.7 0 0 0 3.72-1.25c1-.85 1.53-2.03 1.53-3.42v-9.03c0-.68-.56-1.22-1.24-1.22M7.97 0h-.41v4.57h.41zM13.68 5.63H9.05v.4h4.63zM6.48 5.63H1.86v.4h4.62zM11.8 1.56 8.53 4.8l.29.29 3.27-3.23zM6.71 6.59 3.44 9.8l.3.3L7 6.86zM8.82 6.58l-.3.3 3.27 3.22.3-.29zM3.74 1.56l-.3.3 3.28 3.22L7 4.8z" />
  </symbol>
  <symbol id="icon-logo-lines" viewBox="0 0 53 58">
    <path fill="var(--logo-line-top, rgba(71, 149, 209, 0))" stroke-width="0.25" d="M0 19.7 34.1 0 50.9 9.5 17.07 29.18z" />
    <path fill="var(--logo-line-center, rgba(71, 149, 209, 0))" stroke-width="0.25" d="M2.08 38.7 36.18 19l16.79 9.5-33.82 19.68z" />
    <path fill="var(--logo-line-bottom, rgba(71, 149, 209, 0))" stroke-width="0.25" d="m19.9 48.68 16.6-9.58v18.82z" />
  </symbol>
  <symbol id="icon-phone" viewBox="0 0 24 24" stroke="none">
    <path
      d="m22.76 15.27-5.42-.78a1.5 1.5 0 0 0-1.22.41l-2.3 2.3a.5.5 0 0 1-.58.08 20 20 0 0 1-6.5-6.5.5.5 0 0 1 .08-.58l2.3-2.3a1.5 1.5 0 0 0 .4-1.22l-.77-5.42A1.45 1.45 0 0 0 7.33.02H1.47a1.5 1.5 0 0 0-1.1.46 1.3 1.3 0 0 0-.37.98A23.55 23.55 0 0 0 22.58 24a1.4 1.4 0 0 0 1.3-.87q.12-.28.12-.57v-5.87a1.45 1.45 0 0 0-1.24-1.42" />
    <path d="M12 7.68A4.3 4.3 0 0 1 16.32 12a.48.48 0 0 0 .96 0A5.3 5.3 0 0 0 12 6.72a.48.48 0 1 0 0 .96" />
    <path d="M12 4.8a7.2 7.2 0 0 1 7.2 7.2.48.48 0 0 0 .96 0A8.17 8.17 0 0 0 12 3.84a.48.48 0 1 0 0 .96" />
    <path d="M12 1.92A10.1 10.1 0 0 1 22.08 12a.48.48 0 0 0 .96 0A11.05 11.05 0 0 0 12 .96a.48.48 0 1 0 0 .96" />
  </symbol>
  <symbol id="icon-pin-1" viewBox="0 0 18 18" stroke="none">
    <path d="M9 0a6.9 6.9 0 0 0-5.5 11l5.2 7h.6l5.2-7A7 7 0 0 0 15.9 7C15.9 3 12.8 0 9 0m0 9.2a2.3 2.3 0 1 1 0-4.6 2.3 2.3 0 0 1 0 4.6" />
  </symbol>
  <symbol id="icon-pin-2" viewBox="0 0 24 24" stroke="none">
    <path d="M12 5.996a4.017 4.017 0 0 0-4.012 4.012c0 2.213 1.8 4.012 4.012 4.012 2.213 0 4.012-1.8 4.012-4.012S14.212 5.996 12 5.996" />
    <path
      d="M11.737.003a10.53 10.53 0 0 0-7.205 3.063 10.53 10.53 0 0 0-3.125 7.444c-.026 3.205 1.502 5.711 2.787 7.249 1.01 1.209 3.583 3.393 7.057 5.993.442.33 1.06.331 1.502 0 1.968-1.47 5.5-4.203 7.047-5.985 1.275-1.47 2.796-3.907 2.796-7.172 0-2.83-1.102-5.49-3.103-7.492a10.52 10.52 0 0 0-7.756-3.1M12 15.896a5.894 5.894 0 0 1-5.887-5.888A5.894 5.894 0 0 1 12 4.121a5.894 5.894 0 0 1 5.887 5.887 5.894 5.894 0 0 1-5.887 5.888" />
  </symbol>
  <symbol id="icon-star" viewBox="0 0 20 20" stroke="none">
    <path fill-rule="evenodd" clip-rule="evenodd"
      d="m10.741.54 1.818 5.63c.106.328.398.54.742.54l5.917-.011c.344-.001.636.21.742.538a.77.77 0 0 1-.284.871l-4.793 3.469a.77.77 0 0 0-.284.873l1.84 5.624a.77.77 0 0 1-.283.872.77.77 0 0 1-.917-.001l-4.78-3.487a.77.77 0 0 0-.918 0l-4.78 3.487a.77.77 0 0 1-.917 0 .77.77 0 0 1-.282-.871L5.4 12.45a.77.77 0 0 0-.284-.873L.324 8.108a.77.77 0 0 1-.284-.871.77.77 0 0 1 .742-.538l5.917.01a.77.77 0 0 0 .742-.539L9.26.54A.77.77 0 0 1 10 0c.344 0 .636.213.741.54" />
  </symbol>
  <symbol id="icon-telegram" viewBox="0 0 32 32" stroke="none">
    <path
      d="M28.62 3.65c-4 1.66-21.2 8.79-25.96 10.73-3.18 1.24-1.32 2.4-1.32 2.4s2.72.94 5.05 1.64c2.34.7 3.58-.08 3.58-.08l10.96-7.38c3.88-2.64 2.95-.47 2.02.47-2.02 2.02-5.36 5.2-8.16 7.77-1.25 1.08-.62 2.02-.08 2.48 2.02 1.71 7.54 5.21 7.85 5.44 1.64 1.17 4.87 2.84 5.36-.7l1.95-12.2c.62-4.12 1.24-7.92 1.32-9.01.23-2.64-2.57-1.56-2.57-1.56" />
  </symbol>
  <symbol id="icon-vkontakte" viewBox="0 0 33 33" stroke="none">
    <path fill-rule="evenodd" clip-rule="evenodd"
      d="M15.74 23.83h1.65c.27-.04.55-.16.76-.33q.21-.32.23-.72s-.04-2.2 1-2.54c1.03-.34 2.3 2.14 3.67 3.09 1.04.72 1.82.55 1.82.55l3.67-.07s1.93-.1 1-1.6c-.07-.13-.55-1.1-2.75-3.15-2.3-2.14-1.99-1.78.78-5.5 1.7-2.23 2.37-3.6 2.16-4.22s-1.44-.4-1.44-.4l-4.12.04a.7.7 0 0 0-.55.1q-.23.18-.38.45c-.4 1.1-.93 2.2-1.5 3.23-1.86 3.13-2.58 3.3-2.87 3.09-.68-.45-.51-1.82-.51-2.8 0-3.01.44-4.28-.89-4.6a10 10 0 0 0-1.92-.21c-1.48 0-2.7 0-3.42.34-.51.21-.85.72-.64.72.49.04.89.27 1.23.61.4.6.4 1.86.4 1.86s.23 3.57-.6 4.01c-.54.32-1.3-.31-2.95-3.14q-.84-1.48-1.48-3.07a1 1 0 0 0-.34-.44c-.06-.04-.12-.1-.2-.1q-.33-.15-.69-.13l-3.67.04s-.6 0-.78.27c-.21.28 0 .68 0 .68s3.08 7.2 6.55 10.82c3.19 3.36 6.78 3.12 6.78 3.12" />
  </symbol>
  <symbol id="icon-whatsapp" viewBox="0 0 26 26" stroke="none">
    <path
      d="M13.003 0h-.006C5.829 0 0 5.83 0 13c0 2.844.917 5.48 2.475 7.62l-1.62 4.83 4.997-1.598A12.9 12.9 0 0 0 13.003 26C20.171 26 26 20.168 26 13S20.171 0 13.003 0m7.565 18.358c-.314.885-1.559 1.62-2.552 1.834-.679.145-1.566.26-4.553-.978-3.82-1.583-6.28-5.465-6.472-5.717-.184-.252-1.544-2.055-1.544-3.92 0-1.866.947-2.775 1.33-3.165.313-.32.831-.466 1.328-.466.161 0 .306.008.436.014.382.017.574.04.825.642.314.756 1.078 2.621 1.169 2.813.092.192.185.452.055.704-.122.26-.229.375-.42.596-.193.221-.374.39-.566.627-.176.207-.374.428-.153.81.221.373.985 1.62 2.11 2.62 1.45 1.293 2.627 1.705 3.048 1.881.313.13.687.1.916-.145.291-.313.65-.833 1.016-1.345.26-.367.588-.413.933-.283.35.122 2.208 1.04 2.59 1.23.382.192.634.283.726.444.091.16.091.916-.222 1.804" />
  </symbol>
  <symbol id="icon-youtube" viewBox="0 0 24 24" stroke="none">
    <path
      d="M23.5 6.19a3 3 0 0 0-2.12-2.14c-1.87-.5-9.38-.5-9.38-.5s-7.5 0-9.38.5A3 3 0 0 0 .5 6.19C0 8.07 0 12 0 12s0 3.93.5 5.81a3 3 0 0 0 2.12 2.14c1.87.5 9.38.5 9.38.5s7.5 0 9.38-.5a3 3 0 0 0 2.12-2.14C24 15.93 24 12 24 12s0-3.93-.5-5.81M9.55 15.57V8.43L15.82 12z" />
  </symbol>
</svg>
