<svg xmlns="http://www.w3.org/2000/svg" xmlns:xlink="http://www.w3.org/1999/xlink" fill="none" viewBox="0 0 89 37">
  <g clip-path="url(#a)">
    <mask id="b" width="660" height="947" x="-501" y="-858" maskUnits="userSpaceOnUse" style="mask-type:luminance">
      <path fill="#fff" d="M-500.73 88.54H158v-945.89h-658.74z"/>
    </mask>
    <g fill="#fff" mask="url(#b)">
      <path d="M37.98 18.5a18 18 0 0 0-1.22-6.46c-.2 6.63-7.12 11.76-11.17 15.16h10.16a18 18 0 0 0 2.23-8.7M30.63 3.9A19.2 19.2 0 0 0 19 0C8.5 0 0 8.28 0 18.5S8.5 37 18.99 37c4.8 0 9.17-1.75 12.52-4.61H17.76l-.04-3.94C26 21.44 31.08 16.7 31.08 12.11c0-1.7-.67-3.85-3.66-3.85-2.37 0-4.66 1.33-4.25 6.93h-4.83c-1.2-6.49 2.42-11.64 9.33-11.64q1.6 0 2.96.36M55.59 12.79h4.49c.15-3.33-1-8.6-8.4-8.6-5.46 0-9.41 3.17-9.41 9.8 0 .9.03 5.53.03 8.41 0 7.18 5.11 8.75 9.41 8.75 2.57 0 6.3-.56 8.02-2.4V17.32H51.3v4.16h3.76v5.04c-2.84.94-8.02 1.31-8.02-5.04v-7.49c0-4.45 2.1-5.98 4.45-5.98 2.42 0 4.1 1.2 4.1 4.79m33.4 11.1c.2-10.24-11.85-6.84-11.74-12.56C77.29 9.3 78.63 8 80.82 8c2.34 0 3.72 1.35 3.68 4.86h4.42c.12-3.18-.65-8.6-7.94-8.6-4.54 0-8.26 2.17-8.34 7-.19 9.83 11.94 6.61 11.75 12.56-.08 2.43-1.88 3.52-3.92 3.52-2.38 0-4.3-1.35-3.91-5.39H72.1c-.5 5.35 1.93 9.17 8.34 9.17 5.4 0 8.48-2.92 8.56-7.22m-20.27 6.89h-4.53V4.6h4.53zm0 0h-4.53V4.6h4.53z"/>
    </g>
  </g>
  <defs>
    <clipPath id="a">
      <path fill="#fff" d="M0 0h89v37H0z"/>
    </clipPath>
  </defs>
</svg>
