<svg xmlns="http://www.w3.org/2000/svg" fill="none" viewBox="0 0 128 37">
  <path fill="#fff" fill-rule="evenodd" d="M122.37 32.22c2.52 0 4.3-.46 5.63-1.43v-4.44a9 9 0 0 1-5.31 1.54c-3.88 0-5.5-3-5.5-7.75 0-4.99 1.96-7.54 5.53-7.54 2.1 0 4.16.73 5.25 1.43v-4.6c-1.16-.63-3.15-1.09-5.88-1.09-6.96 0-10.56 5-10.56 11.97.03 7.65 3.57 11.9 10.84 11.9m-34.03-2.03v-4.43a14 14 0 0 1-7.17 2.17c-3.98 0-5.49-1.89-5.73-5.73h13.15v-2.86c0-8-3.53-11-8.95-11-6.65 0-9.8 5.07-9.8 12.01 0 8 3.96 11.87 10.88 11.87 3.46 0 6.01-.94 7.62-2.02M38.44 8.76v9.08h-7.28V8.76h-5.45v23h5.45v-9.6h7.28v9.6h5.45v-23zm30.04 18.68h-2.41V8.76H50.19v1.96c0 5.61-.35 12.88-2.27 16.71h-1.75V37h5.03v-5.24h12.2V37h5.05v-9.57zm37.24 4.32-8.04-11.3v11.3h-5.46v-23h5.46v10.61l7.7-10.6h5.48l-7.69 10.6 8.74 12.4zM79.5 12.6c2.7 0 3.54 2.23 3.54 5.13v.46h-7.6c.15-3.67 1.47-5.59 4.06-5.59M60.61 27.44h-7.7c1.5-3.46 1.93-9.74 1.93-13.72v-.7h5.77zM21.16 31.76H15.6V4.3H13.1C8.57 4.3 6.2 6.56 6.2 9.95c0 3.84 1.64 5.62 5.03 7.89l2.8 1.88-8.04 12.05H0L7.24 21C3.08 18.05.74 15.15.74 10.26.74 4.16 5 0 13.08 0h8.04v31.76z" clip-rule="evenodd"/>
</svg>
