<svg xmlns="http://www.w3.org/2000/svg" fill="none" viewBox="0 0 89 30">
  <path fill="#fff" d="m79.89 12.54-1.57 3-1.6 3.06h-3.5L82.67.36 89 12.29h-3.59l-2.73-5.11zm4.8.45-1.43 2.8h-3.59l1.44-2.8zM69.39 18.6H65.3l5.23-9.12L63.16.36h4.02l5.34 6.66 3.9-6.66h3.97zM57.99 11.13l-4.56-.31a5.2 5.2 0 0 1-3.67-1.78 5 5 0 0 1-1.29-3.83q.16-2.13 1.82-3.56A5.2 5.2 0 0 1 54.18.37l-.22 3q-.48-.04-.9.09-.44.14-.8.44a2.2 2.2 0 0 0-.74 1.52q-.08.93.52 1.64.63.72 1.6.78l4.56.31q2.23.15 3.67 1.78a5 5 0 0 1 1.31 3.8 5 5 0 0 1-1.84 3.59 5.2 5.2 0 0 1-3.89 1.26l.22-3a2.4 2.4 0 0 0 1.7-.51 2 2 0 0 0 .52-.68q.21-.4.25-.86a2.2 2.2 0 0 0-.58-1.62 2.2 2.2 0 0 0-1.57-.78M33.73 18.35V15.8h12.2v2.8h-12.2zm0-18h12.2v2.81h-9.32zm0 7.73h12.21V11H33.73z"/>
  <path fill="#fff" d="M25.12 15.8h9.33v2.8h-12.2zM22.25.36h2.87v11.23l-2.87 2.88V.36M9.32.36q3.85 0 6.57 2.69a8.6 8.6 0 0 1 2.77 6.43q0 3.8-2.77 6.43a9 9 0 0 1-6.57 2.7 9 9 0 0 1-6.57-2.7A8.7 8.7 0 0 1 0 9.48q.01-3.76 2.75-6.43A9 9 0 0 1 9.32.35m0 3.05Q6.77 3.4 4.92 5.2a5.8 5.8 0 0 0-1.8 4.29q-.02 2.5 1.8 4.31a6 6 0 0 0 4.4 1.76q2.56.01 4.38-1.76a5.8 5.8 0 0 0 1.82-4.31q0-2.5-1.82-4.29a6 6 0 0 0-4.38-1.78M71.54 29.83h-1.2l-.8-1.45H65.3l-.8 1.45h-1.2l3.44-6.23h1.34zm-4.11-5.26-1.55 2.79h3.09zM60.76 29.83l3.1-6.23zm.62-1.24 2.49-4.99h1.25L62 29.83h-1.25l-3.28-6.23h1.33zM53.68 23.46q1.1 0 1.97.43a3.3 3.3 0 0 1 1.37 1.18q.5.74.5 1.67t-.5 1.67-1.36 1.17q-.87.42-1.97.42-1.05 0-1.95-.42a3.6 3.6 0 0 1-1.4-1.17 3 3 0 0 1-.52-1.67q0-.93.52-1.67.52-.75 1.4-1.18a4.4 4.4 0 0 1 1.94-.43m0 5.59q.7 0 1.32-.27t1-.8.38-1.24q0-.7-.39-1.24a2.4 2.4 0 0 0-1-.8 3.33 3.33 0 0 0-2.7 0q-.63.27-.98.8-.35.52-.35 1.24a2.1 2.1 0 0 0 1.37 2.05q.61.26 1.35.26"/>
  <path fill="#fff" d="m46.47 26.45 4.26 3.38H49l-3.51-2.89v2.9h-1.12V23.6h1.12V26l3.35-2.4h1.74zM43.86 29.83h-1.2l-.8-1.45h-4.23l-.8 1.45h-1.2l3.44-6.23h1.34zm-4.11-5.26-1.55 2.79h3.09zM36.44 23.6h1.42l-3.1 3.6v2.63h-1.24v-2.6l-3.1-3.63h1.42l2.28 2.71zM27.88 23.6v5.28h4.56v.95h-5.68V23.6zM25.73 29.83H24.6V23.6h1.12zM19.84 26.45l4.25 3.38h-1.71l-3.52-2.89v2.9h-1.12V23.6h1.12V26l3.35-2.4h1.74z"/>
</svg>
