<svg xmlns="http://www.w3.org/2000/svg" fill="none" viewBox="0 0 193 58">
  <path fill="#195e95" d="M68.9 12.8h1.89c.97 0 1.53.71 1.53 1.46 0 .74-.56 1.45-1.53 1.45h-5.53V24h3.53v-5.13h2.16c3.19 0 4.9-2.26 4.9-4.62s-1.71-4.64-4.9-4.64h-5.69v3.19M86.9 22.55a5.2 5.2 0 0 1-3.99 1.57 5.2 5.2 0 0 1-4-1.57c-1.46-1.48-1.46-3.31-1.46-5.73s0-4.26 1.47-5.73a5.2 5.2 0 0 1 4-1.58c1.75 0 2.96.55 3.99 1.58 1.47 1.47 1.47 3.3 1.47 5.73 0 2.42 0 4.25-1.47 5.73m-2.58-9.26a1.8 1.8 0 0 0-1.4-.63c-.65 0-1.16.28-1.42.63-.32.42-.52.9-.52 3.53s.2 3.08.52 3.5c.26.35.77.65 1.41.65.65 0 1.15-.3 1.41-.64.33-.43.53-.89.53-3.51 0-2.63-.2-3.1-.53-3.53M95.82 24.12a5.2 5.2 0 0 1-4-1.57c-1.46-1.48-1.46-3.31-1.46-5.73s0-4.26 1.47-5.73a5.2 5.2 0 0 1 4-1.58c2.72 0 4.9 1.52 5.42 4.68h-3.6c-.21-.8-.66-1.53-1.83-1.53a1.7 1.7 0 0 0-1.39.6c-.32.43-.54.93-.54 3.55s.22 3.13.54 3.55c.26.35.75.6 1.4.6 1.16 0 1.6-.72 1.83-1.53h3.59c-.53 3.17-2.7 4.68-5.43 4.68z"/>
  <path fill="#4795d1" d="M108.1 24.12a5.2 5.2 0 0 1-3.99-1.57c-1.47-1.48-1.47-3.31-1.47-5.73s0-4.26 1.47-5.73a5.2 5.2 0 0 1 4-1.58c2.72 0 4.9 1.52 5.42 4.68h-3.59c-.22-.8-.66-1.53-1.83-1.53a1.7 1.7 0 0 0-1.4.6c-.32.43-.54.93-.54 3.55s.22 3.13.55 3.55c.26.35.74.6 1.39.6 1.17 0 1.61-.72 1.83-1.53h3.6c-.53 3.17-2.71 4.68-5.43 4.68zM123.08 24v-7.82l-4.6 7.82h-3.09V9.64h3.53v7.82l4.6-7.82h3.09V24zM137.2 24v-7.82L132.6 24h-3.09V9.64h3.53v7.82l4.6-7.82h3.09V24zm-2.04-15.05c-1.55 0-3.4-.68-3.47-3.06h2.4c.04.8.5 1.07 1.07 1.07s1.03-.26 1.07-1.07h2.4c-.06 2.38-1.91 3.06-3.47 3.06M148.64 24.12a5.2 5.2 0 0 1-4-1.57c-1.47-1.48-1.47-3.31-1.47-5.73s0-4.26 1.47-5.73a5.2 5.2 0 0 1 4-1.58c2.72 0 4.9 1.52 5.43 4.68h-3.6c-.22-.8-.66-1.53-1.83-1.53a1.7 1.7 0 0 0-1.4.6c-.32.43-.54.93-.54 3.55s.22 3.13.55 3.55c.26.35.74.6 1.39.6 1.17 0 1.61-.72 1.83-1.53h3.6c-.53 3.17-2.71 4.68-5.43 4.68zM155.92 24V9.64h3.53V24zm7.78 0-4.23-7.54 3.87-6.82h4.06l-4.24 6.67 4.7 7.69zM176.8 24v-7.82L172.2 24h-3.09V9.64h3.53v7.82l4.6-7.82h3.09V24zM183.23 24V9.64H193v3.14h-6.24v2.4h5.33v3.15h-5.33v2.52H193v3.14z"/>
  <path fill="#195e95" d="M72.54 48.21V37H68.8V48.2h-3.53V33.85h10.81V48.2zM87 48.21l-.66-2.14h-4.42l-.7 2.14h-3.7l5.23-14.36h2.73L90.7 48.2h-3.69m-2.8-8.92-1.29 3.84h2.5zM99.33 48.21v-5.69h-3.75v5.7h-3.53V33.84h3.53v5.52h3.75v-5.52h3.53V48.2z"/>
  <path fill="#4795d1" d="M105.77 48.21V33.85h9.76v3.14h-6.23v2.4h5.32v3.15h-5.32v2.52h6.23v3.14zM125.23 48.21V37h-2.5v3.75c0 6-1.5 7.46-4.6 7.46h-1.35v-3.14h.43c1.25 0 2.12-.67 2.12-4.32v-6.9h9.44v14.37zM139.36 48.21V40.4l-4.6 7.82h-3.09V33.85h3.53v7.82l4.6-7.82h3.09V48.2zM0 19.7 34.1 0 50.9 9.5 17.07 29.18z"/>
  <path fill="#195e95" d="M2.08 38.7 36.18 19l16.79 9.5-33.82 19.68z"/>
  <path fill="#da1f27" d="m19.9 48.68 16.6-9.58v18.82z"/>
</svg>
