<svg xmlns="http://www.w3.org/2000/svg" xmlns:xlink="http://www.w3.org/1999/xlink" fill="none" viewBox="0 0 1430 852">
  <path fill="url(#map-linear-gradient)" stroke="#195e95" stroke-linecap="round" stroke-linejoin="round" stroke-miterlimit="10"
    d="m1423.4 428.2-2.3-9.6-1-8-4.8-4.4-6.2-6.3-3.5-1.4-2-7.2 1.7-4v-3.2l5.2-.7v-5.2l-7.5-1.8-1.9-2-4-1.4-4.1-6.5-1.5-8.6 2-4.3 7.3-4.8-2.2-5.7-5.4-4.3-7.8 1-3.2-3.2-4-1-4.5-7.5-1-4 4-1.2 2.4-5.9-5.6-5.6h-5l-2.3 2.2-5-1.1-5.2-3.7-1.1-4.9v-.3h0v0l-8-7.8-1.8 4.2-.5 1-.8.8-1.6 1.6v3.2h.1l.8 1.8h-3.6l-1.8-1.8h1.5l-9-4.7-.2-.1-1.6-11.4-5.7-5.7-5-5-2.7-4.6 2.1-2.2v-5.1h2l6.1-6.3-5.3-2.4v-3.8l-2-5.1h.2l3 2.9 6.7 3.2v-6.5l-4-6V241l2.1-7.2-2.3-2.3 4.2-6 2.9-6.6 4.6-1.4 4.5 2.2 5.9-5.1-3.6-3.6-3.8-4.2-2.1-8.7v-7.2l-4.6-4.1-2.2-6.8-1.1-7.2-2.4-5.8-1.4-6.3v-8.2l-1.7-8-3.4-5.2 2.1-2.2-5.7-3.8.2-.2h5l3.2-6.8 5-2v-6.5l-3.6-3.6-2.3-5.4-4.3 3.2-2.2-1.8-4.2.6-2.3 2.4h-4.3l-1.2 2.1h-1.8V112l-6.7.4-2.8.4-4.2-.3-1.7 3-2.4 2.3-4.9.1-1.1 1h-5.4l3-1.3h4l4.4-7.2-1.1-6-2-7.1-8.7-8.7-.8.7-.1-2.5h-4.9L1263 88l-2-2v-3.8l-1.8-.3 2.1-1 .5.5h5.5l2.5-2 3.1 2.4 5.2-5.1v-6.9l-1.5-3 3-4.5h3.4l3.7 1.5 6-2 2.7-6 4.4-4.7 5.6-.5 3-8.3-2.3-.7h3.6l-2.5-5.5v-6.9l-4.8 6.2-1 .3-2.5-3.8-7-7v3.9l-4-1.5v-4.8c1-2.7 1-3.9 0-4.5-.4-.2-1.3-.6-2.4.5l-1.4.6 1.8-3.8-3-3.1-2.4-2c.8-3.4.3-4 0-4.4q-.3-.7-1-.7-1-.2-1.7.6a15 15 0 0 1-4.7 2.2l-.5.1-4 5.6h-1.2l-6 2.3-3.5 3.5-2.7 3.7-.4 3.2-2.7-.3V31l1.7.4-2.2 1.4-2 6.2 5.6 1.5 7 .5 4-.8v.1l-4.7 2.6-2.6 2.5-4.4-3.3-5.2 1.6-3.9-3.9-4.1 2.4-5.4 2.4-4 4.3-8 2.4-4.3 6-5.6 2.4-9.5 9.5-4.8 2.7-7.1 3.1-11.7 11.7-7.4 7.1-1.8 7-3.9 5.5-1.7 5 .9 2.5h-1.6l-4.7 2.6-.5 4.9-4 2-1.3 5v4.4h5l1.5 3.5 6.5-1.1 7.5 3.3 2 .4 1 2.5-.8 2.5-3.8.9-5.3 2.4-3.4 1.3h-4.5l-2-2 3.3-3.4-6.4-6.5-3.5 3.5-3.3 5.8 3.4 4.7-1 3 2.4 2.4-1 4.2-6 4.3v4.8l-2.2 2.2h-3.8l-2.6 5v7.4l-4.4 4.4v4.5l.1.1h-1.5l-4.4 3.6-4.8 2-9.3-9.3-7.2.4-8.2 1.2-4.7 5.7-4.9 4.9-6.2 9.1v6.7l-4.3 5.3-4 4-3.8.2-4.8-2.5-8 4.4.3 1 .2.9-1.4-1.5-1.1-1.2-3.9 4.5h-4.2l-.5-.3c1.5-1.6 3.3-4 3.4-4.1l.8-1.2-6-4.4-7.8 3.4-5.4 2.5-2.3 6.5-1.1 3.6 1 5.3-5.7-1.8-4 4-.8.4.6-2.5c2.3-1 4.7-2.4 4.7-4.2a5 5 0 0 0-1.4-3.3l-.7-.7-7.6 3.4-9.1 3.5-2 5.4-5.6 2.8H993l-4.8 4.7 6 3.7.3 1.8-5 4.5v6.3l5 3.4 1.8-4.6v3.7l4.5 2.4 3.4 3.3.2.2-1.6 1.7-4.5-.3-3 3.3-2.4 2.5-1 1 6.5 3v.6l-3.5-1-4.6.2-7 1.6-3.8 7.1h0l.1.7.8 4h-4l-4.7 1.3-3-3-8-1v6.5l3.1 3v3l1.5 3.5 2.2 7.4-.2 2-4.4-2.3-2.3 2.3-3.8-.7-3.1-2.1-4.9-4.9-4 .1v-2.6l-.1-.4c-1.7-2.5-2.6-3.2-3.7-3q-.9.3-1.1 1.6l-.8.6-1.5-1.4.6-.6 3.7-1v-5.9h1.1l-4-3.8-.7-.7h0l-3.2 2v-2.4 0l-3.5-3.6h-1.2l1.6-5.1h0l-7.8-2.6-1.3 1.3-4.4-3.4h0l-1.5-1-.5 2.2s-.2.6-.5.8l-.3.2q-1 0-1.8.8c-1 1-1.2 3-1.2 4.2l-.1.2-1-1.2-.6-.6h0l-3.5 1-.6 1.6-2-1.4-3.2-3.2-3 2.2-3.6-3.7-1.4 5.4v.6l-1 5.3 3.6 5.5.7 4.4v.2l.5 2.4c-1.8.1-4.9.7-5.6.8h-.4l-5 4.4-3.5 1.3-4-6.2-1.5 5.8-.1.7h-5.3l-2.4-2.3 1.4-1.5-3-4.5-7.9 2.3-8.7 1.6-6.2 3.2-6.9 6.8-.3-.4v-4.8l-4-4-4 5.4-.6 1.7-3.2-1.3-4.3-1h-4.5l-2.9-2.6.5-2.4v-2l4.3-5.1 2.8-2.9.3-.6h0l.5-1 1.5-3 2.5-3.6v-4.5l3-3-3.6-6.3h0l-.5-.2-.4-.3h0l-.7-.4.6-7-7.1-7-1.8 1.9-1.4-1.3-2.3-4.5-3.6-3.6-3.6 1.7-2.8-2.8-5.4 3.8H793l-5.3 2.9.3-.3-4.8-4.8h-5.8l-1.4 1.4-4-.2 1.4-1.7 4-4-1.4-7-4.3.7-5.3-3.2-4.4 4.8-4.4 3.2-3.7 9-1.2 3.8v6.7l2 1.5.1 1.6-5.5 1.7h-7.4l1.7 3.1h-1.4l2.4 1.8h0l2.2 1.7-.8-.2-5.9 1.2-.6 3.5-6.6-.2-.3.3 2.9-5.4h0l-7.9 1.3-1.2 2.5-4.4.6-6.5 1.5-4.2 4.3h0l3.9 1.3-5.5 1.7-2.1 2-7 1.1v0l-1.7.3-2.6 2.5-6.6 2.6-2.4 5-7.2-.3.5 6.4h.7l-.3.2-3.3 4.6 2.2 2.1-.8 1.8q-1-.5-2.5.8l-3.7 3.7 3.6 3.6 2.6 1 1.4 2-1 1h-4.1l-6 2.6H659v.7l-3.8-1.4h-11.8L638 348l1.4 7 1.4 1.5-1.6 3.7-1.7 6.6 1.7 1.8-5.2 1.8-2.9-2.9-4.3.7-3-.6 2.3-2.1-4.1-4.2-3.8 1-2.5 2.4-4 3.3 4.8 3.4 2.4-2h.5l-1.5 1.5.5 3.4.4 1.3-2 .7-4.7-4.6-6.2 4.1-.5-.2 1.9-1.8 1-6.5v-6.8l1.5-6.5h-6.5l-2.2 5 1.6 4-1.6 4.1-2.3 3.6H594l-11 11 2.5 2.4-1.4-.2-3.6-3.1 1.5-4.8 6.7-6.7 1-8.5 2.6-2.6-2.5-9.7h-5.4l-2.8-2.8h-5.4l-3.1-4.4-6 3.2-2.8 6-2.3 5.6-3 6.4-5.3 5.4-4.6 2.3-5 1.7-3 3.8-2.2 6.2 3.4 1.1v2l-2 2.6-1.2 5.9v3l-3.8 2-3.4 3.2 3.1 6.3 4 2.7-.9 6 3 7 2 .7-4 3.6v4.7l-2.7 1.6-2.3-3.6V426l-4.1-5.6-3.8-5.8-5.4-5.6-3-5.9-9.9-10-5.8-7-2 1.9-3.8-3.9-4.5 1.3-.2.1 1.9-4.6-2.3-3.9.2-3.9-3-7-4.7 2.4-3.6 1.2.8 6.6.5 4 2.4.6.9 4.6 5.8.6-4 2 .8 7.5-.7 4.3-4.6.7v3.1l-3.6-.9-3 3-.1 2-1.8-1.5v-2.5l3.6-2.4 1-4.6-3.6-3.6-6.9 2.1h-5.2l-1.8 1.9-6.5-6.5-7.5-1.5-7.1 3.1h-2.8l-3.1-2.8 1.8-.6 1.3-3.9h5.2l-2.4-9h-5l-9 2.8v3.8l-2.5-4.7h-5.9l-8.9-1.2-4.8 1-11-2 .7 2.9-3.5-1.7-7.7 1.8v4.4l-4.3 2.1-4.5-2-4.5-1.3v-3.7l-1.9-5.6V368l6-2.1 4.2 1 4.2 4.2 3.3-3.4 1.6-4.7v-8.8l-4.2-6.4-5.2-5.2-1.5-3.6h-6.7l1.2 7.2v4.8l-5.8 3.5v3.7l-5.7 2.8-2.2 4.7v5.7l-4 5.8-5.5 1.1-4.4 4.6-.3.4v-.4l3.6-3.7-4.6-7-3.2-3.3h-5l-6 1.8-5.7-3-7 2.6-8.4-1.4-.3 9.2-4.3 3.5 1.7 4-.7.7-5.1-1.5-2.4-5-4-4-1-6.3-1.7-11.7h-5.8l-4.8 5v4.5l-.5 5.8 3 3-1 4.4-4.3 3.1-8.2-8.2 3.2-5.5-2.3-6.6-1.2-4 4-4 1.7-8.3 4-4 6-1.8 3.5-7.8 1.2-6.2-3-2.9 2-1.9v-5.6l2.7 1.3 1.5 8 3 5.3 1.8 4.6 2.2 5 4.1 4.3v6.2l4.8 4.8 7.1 4 6.9 2.6 7.4-1.5h7l6.5-6.5 4.5-7.7 1-8.8.3-5.7-4.1-4.1-.1-6.8-1.4-3 1.1-5.4v-6.7h.2l-2-7-.2-.6-3.7-3.7v-5.8l-1.5-.7-1.8-.9v-4.6l-3.5-3.4-3.5-1.9v-3.6l-1-4 .8-.7 1.6 1.6 6 4-2.1-7.8v-5l-7.1-.2-2 .2 1.2-6.4-6 4.1-2.7-2.8h-4.3l-7.1-2.7-18.5 9.3v13l-3.2 5.5h-11.6l-4.9 5-2.9 2.9-.6 4.5-3.3 6-3 5.7-1.5 2.8-3.6-1.6-8.4 6.8-4.7.2v8.3l-4.1 1.6v6.4l-4.7 3.6h-7.3l-1.7 16.7v5.1l-8.6 3-54.9.3 5.3 6.2 2.7 1-3 .8v9.7l4.2 3.7.4 5.5-.8.7-1-2.6-2.2-4.8-5.3-1.6-3.2-3.5-5.1-2.4-3.1 3.1-.7 2.5-5.5-1.2-4.7 2.9-5.7-.3-4.2 5.6-5.3 2-.3 4-1.8 2.2-5.7.2-3.2 3.7v4.6l-4.6 3-5 1.2 1.4 5-2.1 4-4.6 4.5-.9 4.2 2.4 5.3 2.8 2.8-.8 2.7-2 5 5.6 1.6 3.2 3v6.5l-4.1 3.5-1.5 3.2-4.8 1.4-2 5.8-2.6 6-1.5 6 .2 3.3L83 482l4.1 4.1-1.2 4.3-1 4-3.1 1-3.6-1.4-1.2-3-3.2-3.6-5.2.4-1.4 4.8-2.7 3.2-4.4 4.4-2.8 4.8 2.5 4.2 3.7 3.6 2.9-2.4 1.2 1.7 3 3.3 3.5.5 2 2 1.6 4-.4 3.2-1.5 5.8-1.3 1.2h-3.2l-1.7 4-3 2.4 3.2 5 2.4 4.3v4.2l-.7 1.4h0l-1.4 3.2-2.9 3.4-.5.6.2.8 1.2 3.2.1.4.3.3 3.2 2.5 1.5 4.9.5.7 5.1 4 4 2.9 1.2 6.3-1.3 4.6.3 1.3 3.7 4.2 3.3 2 1.3 4.8.3.6 3.3 3.8v4.3l.9 1.3 2.2 1-.7 1-1.5 3.5-7.7 1-1.3 1.6.1 1.9-1.4-.2-1.3.4L81 627l-.5 1.2.8 4.1-2.6 1.6-4.4 4.3-8.2-8.9-1.6-.4-3.4 1.5-3.9-1.7h-1.1L51 631l-.5.4L47 635l.6 2.4 2.5.8 2.3 2.3.7.4 3.7.9 1.8 1.3-.4 1.6-2.3-1-5.6-.7-3-1.4-1.6.3-1.1 1.1-1.8-1.6-2.6-2-.7-.2-2.8-.4-1.6 1-1 3 .2 1 1.6 3.2-.4 3.5-1.8-.5-.5-.1h-2.8l-5.3.2-.5.1-4 1.6-.7.8-1.1 2.3-1.8-.6-3.5-4.4-1.4-.5-2.8.5-.8.4-2.5 2.5-.4 1.4 1 4.3-1.2 3.8v1l2 3.8.3.4 2.2 2.1-.4 6.3.2.9 2.3 3.4 1.7 3.6.9 7.5-.7 10.6v.5l2 5.6 1.5 1 2.2-.3 1.8 2.5 2 2.4.8.5 1.6.3 1 3.7.1.4 3.4 5.2 1.5 5.4.6.8 5.2 3.5 3.1 1.5 1.9 4.8.4.6 3.3 2.6-.8 3.8.5 1.4 2.8 2.6.9 7 .4.8 3.3 3.3.8.4 4.6.6 2.3 2.3.7 2 1.2 1 3 .4 1 3.3.3.6 2.8 3-1 3-2 3.4v1.6l3.2 4L72 792v2.7l.6 1.2 3.1 2.2.5 4.9 2.5 7.8.7 4.3 1.1 1.2 5 1.2h1l4.7-1.7 3.2 1.4h1.2l5.6-2.6.8-1.4-.4-7.3.9-5.9v-.4l-1.4-7.8v-6l4.8-7.8 2.1-2 .5-1v-1l2.3-2.3.3-.7 2.3-8.4v-.8l-1.4-4.5-.4-.6-2-2v-2.6l1.3-1.3 2 .5h.8l4.7-1.3h4.3l1-.5 3.8-4.4 3-1.3.8-1.3V741l2 .3 1.3 1.3.7.4 2.4.6.5 1c.4.4 1.2 1 2.7 1 2 0 4.5-.2 5-.3h7.8l4.2-.4.8-.5 2.4-2.3v-2l-2.8-2.8-1.7-3.6-.3-2h1.2l1.9 2.2 2.1.1 2.5-2.4.4-1V724l-1.2-7.8 1-5.8-.4-1.3-2.8-2.8-4.4-4.2-1.7-1.1 1.8-1.7.3-.7 1.4-6-.4-1.4-3-3.1-1.1-3.2 2.8-2 2.7-2.6 3.6.1h.6l4-1.7.8-1.3v-3.6l5.8-5.8h4l.8-.2 3-2.3.5-.6 1.2-2.8h2.4l1.4 1.4-1.2 3.7-.1.4v4.7l.4 1 3.4 3.4.7.4 5.7 1 1.8-1.3.4-3.9 2.6-2.6.3-.4.8-1.7h9.2l1.3-.7 1.9-2.8h3.7l4.3 2.3 1.2.1 5.3-1.8.6-.3 2.3-2.4 4.1.7 1.3 3.7v4.1l1.5 1.5h3.2l5-.8 2.4 2.2 1.5 3.7.8.8 5.2 2 3 3.5.8 6 2.5 6.3 1.4 3-2 2.1-.5 1v3.8l1.5 1.4h3l1.3-.7 1.9-3.1 2.4 2.1 2.6 5.1.9.7 4 1.2h.6l4.9-.6 5-2.4 3.2 1.7 4 3.1 1.5 3.2 1.9.8 4.1-1.6h4.5l2 2.1v5.3l.5 1 3.2 3.2.7 2.3.4.5 4.5 4.6 1 .4h4.1l1-.4 2.1-2h.9l1.4 2.9.3.4 2.7 2.6 1.1.5 5.2-.4h5l1-.4 3-3 3.5-4.6-.2-2-3-2.9-.7-3.5-.4-.7-5.3-5.3-1.1-2.6 1.1-3 3.4.8h.8l4-1.2.9-.9 1.6-4.1v-1l-1.2-4.5 2.5-1 5.1-.2 3.5 3.5 1 .4h3.3l1-.4 3-3v-2l-5.7-5.7-1.3-.8 2-2 .2-1.7-1.4-3 1.2-3.5h3.4l4.9 2.6 3.6 3.1 1.3.3 3.9-1 5.4 1h.4l7.6-.1 5.1 1.5h4l4.1 2.2 1 .1 4.6-.9.8-.4 2.2-2.2h1.5l5.7 3 .7.1h6.3l4.8-.9 3.7 2.1 1.1.2 5-1.4h5.6l1.2-.6 2.3-3.3 3.9.4 4.4 2.6.7.2h4.9l1.7 3.4 1.3.8h3.8l2.7 1.2 1.5 4.7-1 2.8-.1.5v3.8l-2.5 2.5-.4 1.5 1.3 4 1 1 5.1 1.4 1.2-.2 3.7-2.2 1.9 2-1.3 4.6 1 1.8 4.7 1.4 1.4-.4 1.8-1.7 3.2 2 .7.2h3.2v.8l-4.7 2.2-.9 1-1.4 6.2 1.5 1.8h4l.6-.1 3.7-1.8 1.9 2.7 1.9.4 5.4-2.9 6.3-1.8.7-.4 3.4-3.4h3l5-.3.9-.5 3-3h2.6l.5 1.5-1.9 2.5h-2.5l-1.4 1.5v4.2l.9 1.3 3.6 1.6 2.5 2.4 2.6 5.5.3.4 6.3 6.3 2.6 8.7v7.5l.4 1 3.3 3v5l.2.7 3.8 6.8 1 5.8 1.8 5.5 3 6.2 1.6.8 5.1-1 1-.7 2.4-4.8 2.2-.7 1.5 1.9v3l.5 1 5.3 5.3 1.3.4 4.4-.8 1.7 1.8 1.3.4 5.8-.9.8-.4 2.5-2.5h4.7l2.4 2.4.5.3 4 1.8 2.8 2.6.8 5 .7 1 3.5 2.3 1.7 3.8.6.6 4.2 2.7v4.7l1 1.4 6.3 1.6 5.5 1.9h1l6-2.4.6-.3 1.8-1.8.6 2.3 2.7 5 2 3.5 1 .7 6.8 1.1 1.3-.4 2.9-2.8 5.3-3 6.5.2 1.1-.4 3.5-3.5 5-1.2 1.2-1.2.7-3.7h3.4l1-.4 4.6-4.5 7.2-4.5h5.5l1.4-1 1.3-4h4l1.1-.4 3.4-3.3 3.8 1.7 3.8 3.7 1.6.4 5.7-2.4 4.5 1.3 7.9 8 .5.3 6.8 2.3 4.7 1.4h.6l6.2-1 6 1.5H794l1-.4 5.2-5.1 5.3-3.5.6-1.3v-5.5l-.4-1-3.6-3.7V805l-.3-1-2.5-3 .7-4.8 2.8-2.8.3-.4 2.8-5.7 3.4-3.4 1.8-1.8 4.3 3.2.9.3h8.4l4.1 4 1.4.4 6.5-1.7h5.3l5.5 2.1 3.9 4 3.3 6.8.3.4 3.5 3.6.5.3 5.7 2.4.4.2 8.4.6h.5l5.7-1.6 6-1.4.8-.4 5-5h6l10.4-1.5 2.7 1.8.6.3 8.2 1.1h8.4l2.7 2.7 1.7 3.3.8.7 6.3 2 .7.1 6.8-.9h9.5l6.9-2h7.2l1-.5 8.5-8.4 7.2-3.4 5.5-3.8 4.3-4.2.3-.7 1.9-6.4 7.9-8 5-2.2 3.8 1.4 4.8 2.5h1.4l6.5-3.7 4.2-2.5 5.7 1 8.7.7h.6l7.7-2.8.5-.4 4.6-4.5.3-.4 2.8-6.7 4.2-1.2 1.1-1.4v-6.5l-.4-1-2-2-3-6 2.3-5.8.1-.5v-6.2l1.3-9.7 1.8-3.7.1-1-1.8-7.4-.4-.7-6.2-6.1-2-.2-2.4 2-1.1-1.4 1.6-4 2.4-7.3 3.2-3.2 7.2-4.2 4-3.8 7.3-5.5h5.3l.5-.1 5-1.7 6.6 1 1-.1 5.2-2.8h4.4l8.7.8 2.4 2.4.5.3 4 1.9 1.7 4.3 1 .9 4.7 1.3 3.4 3.4 5.3 4.1 2.1 5.2 1.1.9 5.2.9c1.5 1.1 3.2 2.7 3.6 3.3.1.6.7 1.8 4.5 4.1l3 3 2.8 5.5 1 .8 7 1.4h.8l7-2.7.5-.3 2.1-2h5.7l6.7-1 4 1.1 5.4 1.4 1.4-.4 2.1-2 3.8 1 2.8 2.7 3.2 2.8v4.7l1 1.4 3.1 1 4.3 2.6.7.2h4.5l1.4-1 1-3.5 3.3-1.2 5.2-2.9 5-4 .5-1.6-1.6-5 3.7-4.8 3.8-6.2 1.4-4.4 4.7-2.5h2.5l.6 2 .4.5 5.8 5.9v3.9l-3 3v2l4.3 4.6 1 4.7 2.5 4.3-.8 3.2.3 1.2 3 4 .4 5 .1.5 2 4.6-1.5 4.3.1 1.3 3.3 5-1.7 3.3-2.5 2.5-3-1-1.1.1-3.7 1.9-.4.3-3.2 3.2-.5 1v4l-5 5-.5 1.2.2 4.5 1 1.3 3.8 1.3 4 4 2 5 .3.5 7.4 7.4 2.2 5v4l-2.7 5.2-1.7 5.5.3 1.5 2 1.9.9.4 4.4.2 1.5-1.5v-5.4l1.6-1.5.3-.7 1.3-4.5v-.7l-.8-3.7.7-4.7 2.7 2.7 2.5-1v-4l.5-1.3v1.9l1 1.3 3.3 1.4h1.3l4.8-2.8 5.4-2.2h2.8l1.3-.7 3.5-6.6 3-6.4 4.6-7.6.2-.8v-5.3l.4-11.1-1.4-8.6 1.4-8.2v-20.2l1.3-4.4v-9.3l-1.3-9.3-1.4-6.8-1.9-7.4-2.5-6.7.2-8.3v-.4l-2.5-8 1.4-8v-10l-.4-1.1-3.5-3.5-4.2-6.4-1-3-3.4-5.8-4.6-4.7-1-3.6-.5-.7-8.1-8-4.6-6.6-2.8-9-.7-8.6-.2-.6-.4-.8.3.2 3.4.4 5.8 2.5 7.2 3.2 2.7 4.3 4.4 6.1 11.1 11.1 7.3 10 3.3 7.2 1 .7 3.8 1.2 4 2.2 3.6 3.6 3.1 6 2.8 3.6 7.5 7.5v3.3l.5 1 6 5.6 3.3 3.3 2.6 3.2 2 .2 3.3-2.6.4-1.7-2.4-5.2-.3-.5-3-2.9-.7-3.2 1-2.7h4.1l1-.4 1.7-1.6 1.9.9h0q1.6.8 3.3 1.2 1.3.5 2.3-.4 1-1.1 0-3.9l-3.1-3.9-.4-.4-4.7-2.7-1.8.3-2.2 2.2-3-.1-1.3-3-1.4-.9h-2.8l-2.6-2.5-1-.5h-4.8l-3-1.9-6.1-6.1-.3-5v0q.3-.4.2-1.2 0-.5-.4-1l-.3-.6-.1-.1c-.7-1.2-1.8-2.4-2.1-2.8l-3.2-4.8v-1.8l.8-2.8v-.6l-.4-2.5h1.2l4.2-1.3.5-.5.1.1 2-2 .4-.6.8-2.6-.8-1.8-5.5-2-3-2.5-5.3-3.2-5.4-2.8-1-1.7-.6-.6-.3-.1-9.6-5.3-5-4.5-5.5-2.1-3.6-1-5.7-5.9-2.9-2.8-1.8-5.1-3-4.4h-3.4l-4.9-3.1-1.3-3.5-5.4-1.1-2.3-2.3-1.5-3.5-3.1-1.4-7.3-2v5.1l1.7 4.9 2.5-.6 3.1 1 2 2v1.6l2.6 2.6-.3 1.6-5-1.5v4.8l-1.8 5.2 6.5 2 2.5 4.8 2.2 2.2h0l2.9 2.9v2.9l.2.4.2.2.2.2-4 .5-2.7-2.7-1.1-3.7h-6.8l.1-.2.5-.5 4.2-4.2-4.6-4.7-1 .4c-1.5.7-3.3 1.3-3.7 1.3-1 0-4.4.5-6 .8l-2-2-5.6-.6h-6.2l-5.8 1.2-2.7 2.7-5.3 3 3.6 6.6 1.7 3.2.3.4 1.7 1.6-.4 2.7h-3.7l-1.2.6-1.7 2.2-.2.9v1.3l-1.8.7v-.9l-.4-3.9-1.2-1h0l-4-3v-5.4l-5.4 6v1.5l-4.6-2.4-3.3-3.1-6.4 6.4h0l-.5.5h-3.2l-1 .5-2.4 2.3h-2l-1.4-3.3v0h0l1.5-4.3.1-.3v0-.4 0-5.5l1.3-2h0l2.3-3.8v-6.7l2-7.7v-12.8l-2.2-2.5V514l1.3-5.6v-14.6l3.2-5.3-3.8-3.8-1.9-4.7 1-6.6 4-3.9-4-8 .6-6.9 3.7-7.5 3.8-3.7 3.8-6.4 8-8h5.2l5.9-3.8-2.6-2.6-1.1-1.8 1.4-1.4h2.8l3.7-3.4 4.3-4.2-1-3 3 1.2 4.7-5-3.2-3.3-1-3.6 1-2.8 2.4-2.5 3.8-1 3.3-4 7-3.3V383l3.3-.5.3-.1-.8 2.6v4.5l1 .3 1 .5q-.2.8 0 1.2c.5 1 1.3 1.4 6.2.3l.8-.2 2-5.4v-4.2l4.2-1.8.9-4.5-1.4-7 6.7-1V361l3.7-1.1.4-7h-5.7l-2.4 2.4-2.3 2.1-1.8.3-2.3-2.3v-4.2l-4-3.9-1.1-8.6v-7.3l-4.1-6.4.7-6.8-4.3-3-.2-8.8 2.4-2.8 1.5-5.7.7-2.3V293h5.9l.4-1.1 2-5.8 1.8 1.7 1.9 4 5.6 5.6 2.8 2.8v-7l1.6.8.3.8 3 7.2h0l2.8-9.6h0l-.4-9.3-2.4-5.5v-7.8l-2.4-2.4 1-1.5 2.6.3 1-6h-5.8l-7.5-7.5-2-2 1-3v-4.2l3-1.6v6.1l5.3 3.4 3 4 3 3 3.5 1.2h2.4l2.6 5 2.7 2.7v6.4l-1.7 5.6.3 5.5 2.8 2.4 2.8 8.3h0l.3.9 2 4.9.1.3 2 6.8 2 8 4.4 5.8 2.6 8.2 1.2 7.3 2 6.4-4 4 2.5 4.1-1.2 2.6-2.2 2.2v3.8l4.9 1 3.3 4.8.8 5.5 3.1 3.2v4.8l5.1 5.3 6.6 6.6 3.1 5.7 6.7 4.5 6.5 3.5 10.3 3.1 4.4 1 3.7 2.4 2.7 3.6 9.2 4.8 7.6 3.3 7.9 3.5 4.4 4.5h4.6l3.1 3.1 4.9 2.4h6.3l4.8 6.5v-9.1z" />
  <defs>
    <linearGradient id="map-linear-gradient" x1="715" x2="715" y1="5" y2="846.9" gradientUnits="userSpaceOnUse">
      <stop stop-color="#d0e0ec" />
      <stop offset="1" stop-color="#a0c8e6" />
    </linearGradient>
  </defs>
</svg>
