<svg xmlns="http://www.w3.org/2000/svg" xmlns:xlink="http://www.w3.org/1999/xlink" fill="none" viewBox="0 0 1430 852">
  <g fill="none" stroke="#195e95" stroke-miterlimit="10" stroke-width=".3" mask="url(#map-mask)">
    <path d="m-5.8 33 93.3 78.6-181.1 19.9zM-5.8 33l-45.1-167L56.9-84.6z" />
    <path d="M-5.8 33 168.7-.2 87.5 111.6z" />
    <path d="M-5.8 33 57-84.7 168.7-.2zM187.6-122 268 19.6 168.7-.2z" />
    <path d="m187.6-122 150 62.3-69.7 79.3zM0 277.2l37 117.6-130.6-52.6zM0 277.2l-93.6-145.7 181-19.9zM0 277.2l162.4-54L37.1 394.7zM0 277.2l87.5-165.6 75 111.5z" />
    <path d="m192.6 158.8 122.2 78.8L162.4 223zM192.6 158.8 168.7-.2 268 19.6z" />
    <path d="m192.6 158.8 135.7-65.2-13.5 144zM192.6 158.8 87.5 111.6 168.7-.2z" />
    <path d="m192.6 158.8 75.3-139.2 60.4 74zM192.6 158.8l-30.2 64.3-75-111.5zM408.5 23l46.8 108.5-127-38zM408.5 23l-70.9-82.7 121.3-25z" />
    <path d="m408.5 23 120.8-51.4-74 159.9zM408.5 23l-140.6-3.4 69.7-79.3z" />
    <path d="m408.5 23 50.4-107.7 70.4 56.3zM408.5 23l-80.2 70.6-60.4-74zM609.5-94l37 117-117.2-51.4z" />
    <path d="m609.5-94 137.3-65.8L646.4 23zM-41 467.5l85.4 112.3L-60.8 633zM-41 467.5l-52.6-125.3L37 394.8z" />
    <path d="M-41 467.5 127.2 521l-82.8 58.9zM-41 467.5l78-72.7 90.2 126.1zM221.6 352.2l46.3 107.6L127.2 521zM221.6 352.2l-59.2-129 152.4 14.4z" />
    <path d="m221.6 352.2 132.2 42.6-86 65zM221.6 352.2 37.1 394.8 162.4 223zM221.6 352.2l93.2-114.6 39 157.2z" />
    <path d="m221.6 352.2-94.4 168.7-90.1-126.1zM418.4 271.2l62 155-126.6-31.4zM418.4 271.2 328.3 93.6l127 37.9zM418.4 271.2l149.4-4.5-87.3 159.5zM418.4 271.2l-103.6-33.6 13.4-144z" />
    <path d="m418.4 271.2 36.9-139.7 112.5 135.2zM418.4 271.2l-64.6 123.6-39-157.2z" />
    <path d="m577.8 101.7 73.9 121.8-84 43.2zM577.8 101.7 529.3-28.4 646.4 23zM577.8 101.7 715 141.8l-63.3 81.7z" />
    <path d="m577.8 101.7-122.5 29.8 74-160zM577.8 101.7 646.4 23 715 141.8zM577.8 101.7l-10 165-112.5-135.2zM791.6-.2 861 111.6l-146 30.2z" />
    <path d="M791.6-.2 961 40.4l-100 71.2zM791.6-.2 646.4 23l100.4-183zM791.6-.2l99.1-84.5 70.3 125zM791.6-.2l-76.6 142-68.6-118.7zM1064.8-132l50.8 161.5-154.5 10.9z" />
    <path d="m1064.8-132 115.6 41.7-64.8 119.8zM1064.8-132 961 40.4 890.7-84.7zM-5.8 715.7 32 818.3l-102.7 75.5zM-5.8 715.7l-55-82.6 105.2-53.3z" />
    <path d="M-5.8 715.7 124.7 765 32 818.3z" />
    <path d="m-5.8 715.7 50.2-136 80.3 185.4z" />
    <path d="m202.5 646.3 83.4 74.2-161.2 44.6zM202.5 646.3 127.2 521 268 460zM202.5 646.3 344 628.8l-58 91.7z" />
    <path d="m202.5 646.3-158-66.5 82.7-58.9zM202.5 646.3 268 459.8l76 169zM202.5 646.3l-77.8 118.8-80.3-185.3z" />
    <path d="m417.1 521 51.8 61.4-125 46.4zM417.1 521l-63.3-126.2 126.7 31.4zM417.1 521l159.3-44.5L469 582.4z" />
    <path d="M417.1 521 268 459.7l86-65zM417.1 521l63.4-94.8 96 50.3zM417.1 521 344 628.7l-76-169z" />
    <path d="m636.5 380.7 43.3 126-103.4-30.2zM636.5 380.7l-68.7-114 83.9-43.2z" />
    <path d="m636.5 380.7 123.5 25-80.2 101zM636.5 380.7l-156 45.5 87.3-159.5z" />
    <path d="m636.5 380.7 15.2-157.2L760 405.7zM636.5 380.7l-60 95.8-96-50.3z" />
    <path d="m798.8 280.6 111.8 68.1-150.6 57zM798.8 280.6 715 141.8l146-30.2z" />
    <path d="m798.8 280.6 132.5-47.2-20.7 115.3zM798.8 280.6l-147.1-57.1 63.3-81.7z" />
    <path
      d="m798.8 280.6 62.2-169 70.3 121.8zM798.8 280.6 760 405.7 651.7 223.5zM1031.1 158.8l34 102.5-133.8-27.9zM1031.1 158.8l-70-118.4 154.5-10.9zM1031.1 158.8l158.6-37.3-124.5 139.8zM1031.1 158.8 861 111.6l100-71.2zM1031.1 158.8l84.5-129.3 74 92z" />
    <path d="m1031.1 158.8-99.8 74.6L861 111.6zM1281.4-13.6l31.2 165.4-123-30.3z" />
    <path d="m1281.4-13.6 118.1 54-86.9 111.4zM1281.4-13.6l-165.8 43.1 64.8-119.8zM1281.4-13.6l31.2-108.4 87 162.4zM1281.4-13.6l-91.7 135.1-74-92z" />
    <path d="m1463.2-100.2 60.3 100-124 40.6z" />
    <path d="m1463.2-100.2-63.7 140.6-86.9-162.4zM-41 1016.7l-29.8-122.9L32 818.3zM-41 1016.7 32 818.3 117.3 974zM199.4 883.9l-74.7-118.8L286 720.5zM199.4 883.9l138.8-60.7-66.8 200.8z" />
    <path d="M199.4 883.9 32 818.3l92.8-53.2zM199.4 883.9 286 720.5l52.3 102.7zM199.4 883.9l-82 90.1-85.5-155.7z" />
    <path d="m408.5 749.6 79 129.2-149.3-55.6zM408.5 749.6l-64.6-120.8 125-46.4z" />
    <path d="m408.5 749.6 106.2-43.9-27.2 173.1zM408.5 749.6l-122.6-29 58-91.8zM408.5 749.6l60.4-167.2 45.8 123.3z" />
    <path d="m408.5 749.6-70.3 73.6-52.3-102.7zM609.7 646.3l73 118.8-168-59.4zM609.7 646.3l-33.3-169.8 103.4 30.2zM609.7 646.3 760 628.8 682.7 765z" />
    <path d="m609.7 646.3-140.8-64 107.5-105.8zM609.7 646.3l70.1-139.6 80.2 122zM609.7 646.3l-95 59.4L469 582.4zM828 517.2l68 139-136-27.4zM828 517.2l-68-111.5 150.6-57z" />
    <path d="m828 517.2 106-57.4-38 196.5zM828 517.2l-148.2-10.5 80.2-101z" />
    <path d="m828 517.2 82.6-168.5 23.5 111.1zM828 517.2l-68 111.6-80.2-122z" />
    <path d="m1041.3 395.8 54 115.2-161.2-51.2zM1041.3 395.8l-110-162.4 133.9 27.9z" />
    <path
      d="m1041.3 395.8 127-55-73 170.2zM1041.3 395.8l-130.7-47.1 20.7-115.3zM1041.3 395.8l23.9-134.5 103 79.4zM1041.3 395.8l-107.2 64-23.5-111.1zM1267.5 261.3l55 150-154.3-70.6zM1267.5 261.3l-77.8-139.8 123 30.3z" />
    <path d="m1267.5 261.3 125.3-49.2-70.3 199.2zM1267.5 261.3h-202.3l124.5-139.8zM1267.5 261.3l45.1-109.5L1393 212zM1267.5 261.3l-99.3 79.4-103-79.4z" />
    <path d="M1474.7 151.8 1502 264l-109.2-52zM1474.7 151.8l-75.2-111.4 124-40.6z" />
    <path
      d="M1474.7 151.8h-162l86.8-111.4zM1474.7 151.8l-81.9 60.3-80.2-60.3zM391.8 930.4l-53.6-107.2 149.3 55.6zM391.8 930.4 271.4 1024l66.8-200.8zM602.3 832.9l78 187-149.2-25.1zM602.3 832.9l-87.6-127.2 168 59.4z" />
    <path d="m602.3 832.9 153.7 51-75.7 136zM602.3 832.9l-114.8 46 27.2-173.2z" />
    <path
      d="m602.3 832.9 80.4-67.8L756 884zM602.3 832.9l-71.2 161.9-43.6-116zM818.9 712.7l81.8 114.6L756 883.9zM818.9 712.7l-58.9-84 136 27.6zM818.9 712.7l153.3 47.7-71.5 66.9zM818.9 712.7l-136.2 52.4L760 628.8z" />
    <path d="m818.9 712.7 77-56.4 76.3 104.1zM818.9 712.7l-63 171.2-73.2-118.8zM1031.1 586.7l41.7 112-100.6 61.7zM1031.1 586.7l-97-126.9 161.2 51.2z" />
    <path d="m1031.1 586.7 140.9 42-99.2 70zM1031.1 586.7 896 656.3l38.2-196.5z" />
    <path d="m1031.1 586.7 64.2-75.7 76.7 117.8zM1031.1 586.7l-59 173.7L896 656.3zM1224.7 521 1337 656l-165-27.2zM1224.7 521l-56.5-180.3 154.3 70.6z" />
    <path d="M1224.7 521 1374 527 1337 656zM1224.7 521l-129.4-10 73-170.3z" />
    <path d="m1224.7 521 97.8-109.7 51.6 115.8zM1224.7 521 1172 628.7 1095.3 511zM1416.8 370.8l72 95-114.7 61.3zM1416.8 370.8l-24-158.7 109.2 52zM1416.8 370.8l161.4 19.8-89.3 75.1z" />
    <path d="m1416.8 370.8-94.3 40.5 70.3-199.2zM1416.8 370.8 1502 264l76.2 126.5z" />
    <path d="M1416.8 370.8 1374 527l-51.6-115.8zM858.4 952.1 756 884l144.7-56.6z" />
    <path d="m858.4 952.1 42.3-124.8L961 974zM1055.2 884.5l-83-124 100.5-61.9zM1055.2 884.5l147.9-42.2-70.8 162.4z" />
    <path d="m1055.2 884.5-154.5-57.2 71.5-66.9zM1055.2 884.5l17.5-185.9 130.4 143.7zM1055.2 884.5 961.1 974l-60.4-146.7z" />
    <path d="m1234.6 712.7 89.7 171.8-121.2-42.2zM1234.6 712.7l-62.6-84 165 27.3z" />
    <path d="m1234.6 712.7 158.3 53.2-68.6 118.6zM1234.6 712.7l-161.8-14 99.2-70z" />
    <path d="M1234.6 712.7 1337 656l55.8 109.9zM1234.6 712.7l-31.5 129.6-130.3-143.7zM1474.7 616.7 1479 757l-86.2 8.9zM1474.7 616.7 1374 527.1l114.8-61.4z" />
    <path d="M1474.7 616.7 1337 656l37-128.9zM1474.7 616.7 1392.8 766l-55.8-110zM1238.5 944.2 1203 842.3l121.2 42.2z" />
    <path d="m1238.5 944.2-106.2 60.5 70.8-162.4zM1453.2 913.1 1392.8 766l86.2-8.9z" />
    <path d="m1453.2 913.1-128.9-28.6 68.5-118.6z" />
  </g>
  <defs>
    <mask id="map-mask" width="1420" height="842" x="5" y="5" maskUnits="userSpaceOnUse" style="mask-type:luminance">
      <path fill="#fff"
        d="m1423.4 428.2-2.3-9.6-1-8-4.8-4.4-6.2-6.3-3.5-1.4-2-7.2 1.7-4v-3.2l5.2-.7v-5.2l-7.5-1.8-1.9-2-4-1.4-4.1-6.5-1.5-8.6 2-4.3 7.3-4.8-2.2-5.7-5.4-4.3-7.8 1-3.2-3.2-4-1-4.5-7.5-1-4 4-1.2 2.4-5.9-5.6-5.6h-5l-2.3 2.2-5-1.1-5.2-3.7-1.1-4.9v-.3l-8-7.8-1.8 4.2-.5 1-.8.8-1.6 1.6v3.2h.1l.8 1.8h-3.6l-1.8-1.8h1.5l-9-4.7-.2-.1-1.6-11.4-5.7-5.7-5-5-2.7-4.6 2.1-2.2v-5.1h2l6.1-6.3-5.3-2.4v-3.8l-2-5.1h.2l3 2.9 6.7 3.2v-6.5l-4-6V241l2.1-7.2-2.3-2.3 4.2-6 2.9-6.6 4.6-1.4 4.5 2.2 5.9-5.1-3.6-3.6-3.8-4.2-2.1-8.7v-7.2l-4.6-4.1-2.2-6.8-1.1-7.2-2.4-5.8-1.4-6.3v-8.2l-1.7-8-3.4-5.2 2.1-2.2-5.7-3.8.2-.2h5l3.2-6.8 5-2v-6.5l-3.6-3.6-2.3-5.4-4.3 3.2-2.2-1.8-4.2.6-2.3 2.4h-4.3l-1.2 2.1h-1.8V112l-6.7.4-2.8.4-4.2-.3-1.7 3-2.4 2.3-4.9.1-1.1 1h-5.4l3-1.3h4l4.4-7.2-1.1-6-2-7.1-8.7-8.7-.8.7-.1-2.5h-4.9L1263 88l-2-2v-3.8l-1.8-.3 2.1-1 .5.5h5.5l2.5-2 3.1 2.4 5.2-5.1v-6.9l-1.5-3 3-4.5h3.4l3.7 1.5 6-2 2.7-6 4.4-4.7 5.6-.5 3-8.3-2.3-.7h3.6l-2.5-5.5v-6.9l-4.8 6.2-1 .3-2.5-3.8-7-7v3.9l-4-1.5v-4.8c1-2.7 1-3.9 0-4.5-.4-.2-1.3-.6-2.4.5l-1.4.6 1.8-3.8-3-3.1-2.4-2c.8-3.4.3-4 0-4.4q-.3-.7-1-.7-1-.2-1.7.6a15 15 0 0 1-4.7 2.2l-.5.1-4 5.6h-1.2l-6 2.3-3.5 3.5-2.7 3.7-.4 3.2-2.7-.3V31l1.7.4-2.2 1.4-2 6.2 5.6 1.5 7 .5 4-.8v.1l-4.7 2.6-2.6 2.5-4.4-3.3-5.2 1.6-3.9-3.9-4.1 2.4-5.4 2.4-4 4.3-8 2.4-4.3 6-5.6 2.4-9.5 9.5-4.8 2.7-7.1 3.1-11.7 11.7-7.4 7.1-1.8 7-3.9 5.5-1.7 5 .9 2.5h-1.6l-4.7 2.6-.5 4.9-4 2-1.3 5v4.4h5l1.5 3.5 6.5-1.1 7.5 3.3 2 .4 1 2.5-.8 2.5-3.8.9-5.3 2.4-3.4 1.3h-4.5l-2-2 3.3-3.4-6.4-6.5-3.5 3.5-3.3 5.8 3.4 4.7-1 3 2.4 2.4-1 4.2-6 4.3v4.8l-2.2 2.2h-3.8l-2.6 5v7.4l-4.4 4.4v4.5l.1.1h-1.5l-4.4 3.6-4.8 2-9.3-9.3-7.2.4-8.2 1.2-4.7 5.7-4.9 4.9-6.2 9.1v6.7l-4.3 5.3-4 4-3.8.2-4.8-2.5-8 4.4.3 1 .2.9-1.4-1.5-1.1-1.2-3.9 4.5h-4.2l-.5-.3c1.5-1.6 3.3-4 3.4-4.1l.8-1.2-6-4.4-7.8 3.4-5.4 2.5-2.3 6.5-1.1 3.6 1 5.3-5.7-1.8-4 4-.8.4.6-2.5c2.3-1 4.7-2.4 4.7-4.2a5 5 0 0 0-1.4-3.3l-.7-.7-7.6 3.4-9.1 3.5-2 5.4-5.6 2.8H993l-4.8 4.7 6 3.7.3 1.8-5 4.5v6.3l5 3.4 1.8-4.6v3.7l4.5 2.4 3.4 3.3.2.2-1.6 1.7-4.5-.3-3 3.3-2.4 2.5-1 1 6.5 3v.6l-3.5-1-4.6.2-7 1.6-3.8 7.1.1.7.8 4h-4l-4.7 1.3-3-3-8-1v6.5l3.1 3v3l1.5 3.5 2.2 7.4-.2 2-4.4-2.3-2.3 2.3-3.8-.7-3.1-2.1-4.9-4.9-4 .1v-2.6l-.1-.4c-1.7-2.5-2.6-3.2-3.7-3q-.9.3-1.1 1.6l-.8.6-1.5-1.4.6-.6 3.7-1v-5.9h1.1l-4-3.8-.7-.7-3.2 2v-2.4l-3.5-3.6h-1.2l1.6-5.1-7.8-2.6-1.3 1.3-4.4-3.4-1.5-1-.5 2.2s-.2.6-.5.8l-.3.2q-1 0-1.8.8c-1 1-1.2 3-1.2 4.2l-.1.2-1-1.2-.6-.6-3.5 1-.6 1.6-2-1.4-3.2-3.2-3 2.2-3.6-3.7-1.4 5.4v.6l-1 5.3 3.6 5.5.7 4.4v.2l.5 2.4c-1.8.1-4.9.7-5.6.8h-.4l-5 4.4-3.5 1.3-4-6.2-1.5 5.8-.1.7h-5.3l-2.4-2.3 1.4-1.5-3-4.5-7.9 2.3-8.7 1.6-6.2 3.2-6.9 6.8-.3-.4v-4.8l-4-4-4 5.4-.6 1.7-3.2-1.3-4.3-1h-4.5l-2.9-2.6.5-2.4v-2l4.3-5.1 2.8-2.9.3-.6.5-1 1.5-3 2.5-3.6v-4.5l3-3-3.6-6.3-.5-.2-.4-.3-.7-.4.6-7-7.1-7-1.8 1.9-1.4-1.3-2.3-4.5-3.6-3.6-3.6 1.7-2.8-2.8-5.4 3.8H793l-5.3 2.9.3-.3-4.8-4.8h-5.8l-1.4 1.4-4-.2 1.4-1.7 4-4-1.4-7-4.3.7-5.3-3.2-4.4 4.8-4.4 3.2-3.7 9-1.2 3.8v6.7l2 1.5.1 1.6-5.5 1.7h-7.4l1.7 3.1h-1.4l2.4 1.8 2.2 1.7-.8-.2-5.9 1.2-.6 3.5-6.6-.2-.3.3 2.9-5.4-7.9 1.3-1.2 2.5-4.4.6-6.5 1.5-4.2 4.3 3.9 1.3-5.5 1.7-2.1 2-7 1.1-1.7.3-2.6 2.5-6.6 2.6-2.4 5-7.2-.3.5 6.4h.7l-.3.2-3.3 4.6 2.2 2.1-.8 1.8q-1-.5-2.5.8l-3.7 3.7 3.6 3.6 2.6 1 1.4 2-1 1h-4.1l-6 2.6H659v.7l-3.8-1.4h-11.8L638 348l1.4 7 1.4 1.5-1.6 3.7-1.7 6.6 1.7 1.8-5.2 1.8-2.9-2.9-4.3.7-3-.6 2.3-2.1-4.1-4.2-3.8 1-2.5 2.4-4 3.3 4.8 3.4 2.4-2h.5l-1.5 1.5.5 3.4.4 1.3-2 .7-4.7-4.6-6.2 4.1-.5-.2 1.9-1.8 1-6.5v-6.8l1.5-6.5h-6.5l-2.2 5 1.6 4-1.6 4.1-2.3 3.6H594l-11 11 2.5 2.4-1.4-.2-3.6-3.1 1.5-4.8 6.7-6.7 1-8.5 2.6-2.6-2.5-9.7h-5.4l-2.8-2.8h-5.4l-3.1-4.4-6 3.2-2.8 6-2.3 5.6-3 6.4-5.3 5.4-4.6 2.3-5 1.7-3 3.8-2.2 6.2 3.4 1.1v2l-2 2.6-1.2 5.9v3l-3.8 2-3.4 3.2 3.1 6.3 4 2.7-.9 6 3 7 2 .7-4 3.6v4.7l-2.7 1.6-2.3-3.6V426l-4.1-5.6-3.8-5.8-5.4-5.6-3-5.9-9.9-10-5.8-7-2 1.9-3.8-3.9-4.5 1.3-.2.1 1.9-4.6-2.3-3.9.2-3.9-3-7-4.7 2.4-3.6 1.2.8 6.6.5 4 2.4.6.9 4.6 5.8.6-4 2 .8 7.5-.7 4.3-4.6.7v3.1l-3.6-.9-3 3-.1 2-1.8-1.5v-2.5l3.6-2.4 1-4.6-3.6-3.6-6.9 2.1h-5.2l-1.8 1.9-6.5-6.5-7.5-1.5-7.1 3.1h-2.8l-3.1-2.8 1.8-.6 1.3-3.9h5.2l-2.4-9h-5l-9 2.8v3.8l-2.5-4.7h-5.9l-8.9-1.2-4.8 1-11-2 .7 2.9-3.5-1.7-7.7 1.8v4.4l-4.3 2.1-4.5-2-4.5-1.3v-3.7l-1.9-5.6V368l6-2.1 4.2 1 4.2 4.2 3.3-3.4 1.6-4.7v-8.8l-4.2-6.4-5.2-5.2-1.5-3.6h-6.7l1.2 7.2v4.8l-5.8 3.5v3.7l-5.7 2.8-2.2 4.7v5.7l-4 5.8-5.5 1.1-4.4 4.6-.3.4v-.4l3.6-3.7-4.6-7-3.2-3.3h-5l-6 1.8-5.7-3-7 2.6-8.4-1.4-.3 9.2-4.3 3.5 1.7 4-.7.7-5.1-1.5-2.4-5-4-4-1-6.3-1.7-11.7h-5.8l-4.8 5v4.5l-.5 5.8 3 3-1 4.4-4.3 3.1-8.2-8.2 3.2-5.5-2.3-6.6-1.2-4 4-4 1.7-8.3 4-4 6-1.8 3.5-7.8 1.2-6.2-3-2.9 2-1.9v-5.6l2.7 1.3 1.5 8 3 5.3 1.8 4.6 2.2 5 4.1 4.3v6.2l4.8 4.8 7.1 4 6.9 2.6 7.4-1.5h7l6.5-6.5 4.5-7.7 1-8.8.3-5.7-4.1-4.1-.1-6.8-1.4-3 1.1-5.4v-6.7h.2l-2-7-.2-.6-3.7-3.7v-5.8l-1.5-.7-1.8-.9v-4.6l-3.5-3.4-3.5-1.9v-3.6l-1-4 .8-.7 1.6 1.6 6 4-2.1-7.8v-5l-7.1-.2-2 .2 1.2-6.4-6 4.1-2.7-2.8h-4.3l-7.1-2.7-18.5 9.3v13l-3.2 5.5h-11.6l-4.9 5-2.9 2.9-.6 4.5-3.3 6-3 5.7-1.5 2.8-3.6-1.6-8.4 6.8-4.7.2v8.3l-4.1 1.6v6.4l-4.7 3.6h-7.3l-1.7 16.7v5.1l-8.6 3-54.9.3 5.3 6.2 2.7 1-3 .8v9.7l4.2 3.7.4 5.5-.8.7-1-2.6-2.2-4.8-5.3-1.6-3.2-3.5-5.1-2.4-3.1 3.1-.7 2.5-5.5-1.2-4.7 2.9-5.7-.3-4.2 5.6-5.3 2-.3 4-1.8 2.2-5.7.2-3.2 3.7v4.6l-4.6 3-5 1.2 1.4 5-2.1 4-4.6 4.5-.9 4.2 2.4 5.3 2.8 2.8-.8 2.7-2 5 5.6 1.6 3.2 3v6.5l-4.1 3.5-1.5 3.2-4.8 1.4-2 5.8-2.6 6-1.5 6 .2 3.3L83 482l4.1 4.1-1.2 4.3-1 4-3.1 1-3.6-1.4-1.2-3-3.2-3.6-5.2.4-1.4 4.8-2.7 3.2-4.4 4.4-2.8 4.8 2.5 4.2 3.7 3.6 2.9-2.4 1.2 1.7 3 3.3 3.5.5 2 2 1.6 4-.4 3.2-1.5 5.8-1.3 1.2h-3.2l-1.7 4-3 2.4 3.2 5 2.4 4.3v4.2l-.7 1.4-1.4 3.2-2.9 3.4-.5.6.2.8 1.2 3.2.1.4.3.3 3.2 2.5 1.5 4.9.5.7 5.1 4 4 2.9 1.2 6.3-1.3 4.6.3 1.3 3.7 4.2 3.3 2 1.3 4.8.3.6 3.3 3.8v4.3l.9 1.3 2.2 1-.7 1-1.5 3.5-7.7 1-1.3 1.6.1 1.9-1.4-.2-1.3.4L81 627l-.5 1.2.8 4.1-2.6 1.6-4.4 4.3-8.2-8.9-1.6-.4-3.4 1.5-3.9-1.7h-1.1L51 631l-.5.4L47 635l.6 2.4 2.5.8 2.3 2.3.7.4 3.7.9 1.8 1.3-.4 1.6-2.3-1-5.6-.7-3-1.4-1.6.3-1.1 1.1-1.8-1.6-2.6-2-.7-.2-2.8-.4-1.6 1-1 3 .2 1 1.6 3.2-.4 3.5-1.8-.5-.5-.1h-2.8l-5.3.2-.5.1-4 1.6-.7.8-1.1 2.3-1.8-.6-3.5-4.4-1.4-.5-2.8.5-.8.4-2.5 2.5-.4 1.4 1 4.3-1.2 3.8v1l2 3.8.3.4 2.2 2.1-.4 6.3.2.9 2.3 3.4 1.7 3.6.9 7.5-.7 10.6v.5l2 5.6 1.5 1 2.2-.3 1.8 2.5 2 2.4.8.5 1.6.3 1 3.7.1.4 3.4 5.2 1.5 5.4.6.8 5.2 3.5 3.1 1.5 1.9 4.8.4.6 3.3 2.6-.8 3.8.5 1.4 2.8 2.6.9 7 .4.8 3.3 3.3.8.4 4.6.6 2.3 2.3.7 2 1.2 1 3 .4 1 3.3.3.6 2.8 3-1 3-2 3.4v1.6l3.2 4L72 792v2.7l.6 1.2 3.1 2.2.5 4.9 2.5 7.8.7 4.3 1.1 1.2 5 1.2h1l4.7-1.7 3.2 1.4h1.2l5.6-2.6.8-1.4-.4-7.3.9-5.9v-.4l-1.4-7.8v-6l4.8-7.8 2.1-2 .5-1v-1l2.3-2.3.3-.7 2.3-8.4v-.8l-1.4-4.5-.4-.6-2-2v-2.6l1.3-1.3 2 .5h.8l4.7-1.3h4.3l1-.5 3.8-4.4 3-1.3.8-1.3V741l2 .3 1.3 1.3.7.4 2.4.6.5 1c.4.4 1.2 1 2.7 1 2 0 4.5-.2 5-.3h7.8l4.2-.4.8-.5 2.4-2.3v-2l-2.8-2.8-1.7-3.6-.3-2h1.2l1.9 2.2 2.1.1 2.5-2.4.4-1V724l-1.2-7.8 1-5.8-.4-1.3-2.8-2.8-4.4-4.2-1.7-1.1 1.8-1.7.3-.7 1.4-6-.4-1.4-3-3.1-1.1-3.2 2.8-2 2.7-2.6 3.6.1h.6l4-1.7.8-1.3v-3.6l5.8-5.8h4l.8-.2 3-2.3.5-.6 1.2-2.8h2.4l1.4 1.4-1.2 3.7-.1.4v4.7l.4 1 3.4 3.4.7.4 5.7 1 1.8-1.3.4-3.9 2.6-2.6.3-.4.8-1.7h9.2l1.3-.7 1.9-2.8h3.7l4.3 2.3 1.2.1 5.3-1.8.6-.3 2.3-2.4 4.1.7 1.3 3.7v4.1l1.5 1.5h3.2l5-.8 2.4 2.2 1.5 3.7.8.8 5.2 2 3 3.5.8 6 2.5 6.3 1.4 3-2 2.1-.5 1v3.8l1.5 1.4h3l1.3-.7 1.9-3.1 2.4 2.1 2.6 5.1.9.7 4 1.2h.6l4.9-.6 5-2.4 3.2 1.7 4 3.1 1.5 3.2 1.9.8 4.1-1.6h4.5l2 2.1v5.3l.5 1 3.2 3.2.7 2.3.4.5 4.5 4.6 1 .4h4.1l1-.4 2.1-2h.9l1.4 2.9.3.4 2.7 2.6 1.1.5 5.2-.4h5l1-.4 3-3 3.5-4.6-.2-2-3-2.9-.7-3.5-.4-.7-5.3-5.3-1.1-2.6 1.1-3 3.4.8h.8l4-1.2.9-.9 1.6-4.1v-1l-1.2-4.5 2.5-1 5.1-.2 3.5 3.5 1 .4h3.3l1-.4 3-3v-2l-5.7-5.7-1.3-.8 2-2 .2-1.7-1.4-3 1.2-3.5h3.4l4.9 2.6 3.6 3.1 1.3.3 3.9-1 5.4 1h.4l7.6-.1 5.1 1.5h4l4.1 2.2 1 .1 4.6-.9.8-.4 2.2-2.2h1.5l5.7 3 .7.1h6.3l4.8-.9 3.7 2.1 1.1.2 5-1.4h5.6l1.2-.6 2.3-3.3 3.9.4 4.4 2.6.7.2h4.9l1.7 3.4 1.3.8h3.8l2.7 1.2 1.5 4.7-1 2.8-.1.5v3.8l-2.5 2.5-.4 1.5 1.3 4 1 1 5.1 1.4 1.2-.2 3.7-2.2 1.9 2-1.3 4.6 1 1.8 4.7 1.4 1.4-.4 1.8-1.7 3.2 2 .7.2h3.2v.8l-4.7 2.2-.9 1-1.4 6.2 1.5 1.8h4l.6-.1 3.7-1.8 1.9 2.7 1.9.4 5.4-2.9 6.3-1.8.7-.4 3.4-3.4h3l5-.3.9-.5 3-3h2.6l.5 1.5-1.9 2.5h-2.5l-1.4 1.5v4.2l.9 1.3 3.6 1.6 2.5 2.4 2.6 5.5.3.4 6.3 6.3 2.6 8.7v7.5l.4 1 3.3 3v5l.2.7 3.8 6.8 1 5.8 1.8 5.5 3 6.2 1.6.8 5.1-1 1-.7 2.4-4.8 2.2-.7 1.5 1.9v3l.5 1 5.3 5.3 1.3.4 4.4-.8 1.7 1.8 1.3.4 5.8-.9.8-.4 2.5-2.5h4.7l2.4 2.4.5.3 4 1.8 2.8 2.6.8 5 .7 1 3.5 2.3 1.7 3.8.6.6 4.2 2.7v4.7l1 1.4 6.3 1.6 5.5 1.9h1l6-2.4.6-.3 1.8-1.8.6 2.3 2.7 5 2 3.5 1 .7 6.8 1.1 1.3-.4 2.9-2.8 5.3-3 6.5.2 1.1-.4 3.5-3.5 5-1.2 1.2-1.2.7-3.7h3.4l1-.4 4.6-4.5 7.2-4.5h5.5l1.4-1 1.3-4h4l1.1-.4 3.4-3.3 3.8 1.7 3.8 3.7 1.6.4 5.7-2.4 4.5 1.3 7.9 8 .5.3 6.8 2.3 4.7 1.4h.6l6.2-1 6 1.5H794l1-.4 5.2-5.1 5.3-3.5.6-1.3v-5.5l-.4-1-3.6-3.7V805l-.3-1-2.5-3 .7-4.8 2.8-2.8.3-.4 2.8-5.7 3.4-3.4 1.8-1.8 4.3 3.2.9.3h8.4l4.1 4 1.4.4 6.5-1.7h5.3l5.5 2.1 3.9 4 3.3 6.8.3.4 3.5 3.6.5.3 5.7 2.4.4.2 8.4.6h.5l5.7-1.6 6-1.4.8-.4 5-5h6l10.4-1.5 2.7 1.8.6.3 8.2 1.1h8.4l2.7 2.7 1.7 3.3.8.7 6.3 2 .7.1 6.8-.9h9.5l6.9-2h7.2l1-.5 8.5-8.4 7.2-3.4 5.5-3.8 4.3-4.2.3-.7 1.9-6.4 7.9-8 5-2.2 3.8 1.4 4.8 2.5h1.4l6.5-3.7 4.2-2.5 5.7 1 8.7.7h.6l7.7-2.8.5-.4 4.6-4.5.3-.4 2.8-6.7 4.2-1.2 1.1-1.4v-6.5l-.4-1-2-2-3-6 2.3-5.8.1-.5v-6.2l1.3-9.7 1.8-3.7.1-1-1.8-7.4-.4-.7-6.2-6.1-2-.2-2.4 2-1.1-1.4 1.6-4 2.4-7.3 3.2-3.2 7.2-4.2 4-3.8 7.3-5.5h5.3l.5-.1 5-1.7 6.6 1 1-.1 5.2-2.8h4.4l8.7.8 2.4 2.4.5.3 4 1.9 1.7 4.3 1 .9 4.7 1.3 3.4 3.4 5.3 4.1 2.1 5.2 1.1.9 5.2.9c1.5 1.1 3.2 2.7 3.6 3.3.1.6.7 1.8 4.5 4.1l3 3 2.8 5.5 1 .8 7 1.4h.8l7-2.7.5-.3 2.1-2h5.7l6.7-1 4 1.1 5.4 1.4 1.4-.4 2.1-2 3.8 1 2.8 2.7 3.2 2.8v4.7l1 1.4 3.1 1 4.3 2.6.7.2h4.5l1.4-1 1-3.5 3.3-1.2 5.2-2.9 5-4 .5-1.6-1.6-5 3.7-4.8 3.8-6.2 1.4-4.4 4.7-2.5h2.5l.6 2 .4.5 5.8 5.9v3.9l-3 3v2l4.3 4.6 1 4.7 2.5 4.3-.8 3.2.3 1.2 3 4 .4 5 .1.5 2 4.6-1.5 4.3.1 1.3 3.3 5-1.7 3.3-2.5 2.5-3-1-1.1.1-3.7 1.9-.4.3-3.2 3.2-.5 1v4l-5 5-.5 1.2.2 4.5 1 1.3 3.8 1.3 4 4 2 5 .3.5 7.4 7.4 2.2 5v4l-2.7 5.2-1.7 5.5.3 1.5 2 1.9.9.4 4.4.2 1.5-1.5v-5.4l1.6-1.5.3-.7 1.3-4.5v-.7l-.8-3.7.7-4.7 2.7 2.7 2.5-1v-4l.5-1.3v1.9l1 1.3 3.3 1.4h1.3l4.8-2.8 5.4-2.2h2.8l1.3-.7 3.5-6.6 3-6.4 4.6-7.6.2-.8v-5.3l.4-11.1-1.4-8.6 1.4-8.2v-20.2l1.3-4.4v-9.3l-1.3-9.3-1.4-6.8-1.9-7.4-2.5-6.7.2-8.3v-.4l-2.5-8 1.4-8v-10l-.4-1.1-3.5-3.5-4.2-6.4-1-3-3.4-5.8-4.6-4.7-1-3.6-.5-.7-8.1-8-4.6-6.6-2.8-9-.7-8.6-.2-.6-.4-.8.3.2 3.4.4 5.8 2.5 7.2 3.2 2.7 4.3 4.4 6.1 11.1 11.1 7.3 10 3.3 7.2 1 .7 3.8 1.2 4 2.2 3.6 3.6 3.1 6 2.8 3.6 7.5 7.5v3.3l.5 1 6 5.6 3.3 3.3 2.6 3.2 2 .2 3.3-2.6.4-1.7-2.4-5.2-.3-.5-3-2.9-.7-3.2 1-2.7h4.1l1-.4 1.7-1.6 1.9.9q1.6.8 3.3 1.2 1.3.5 2.3-.4 1-1.1 0-3.9l-3.1-3.9-.4-.4-4.7-2.7-1.8.3-2.2 2.2-3-.1-1.3-3-1.4-.9h-2.8l-2.6-2.5-1-.5h-4.8l-3-1.9-6.1-6.1-.3-5q.3-.4.2-1.2 0-.5-.4-1l-.3-.6-.1-.1c-.7-1.2-1.8-2.4-2.1-2.8l-3.2-4.8v-1.8l.8-2.8v-.6l-.4-2.5h1.2l4.2-1.3.5-.5.1.1 2-2 .4-.6.8-2.6-.8-1.8-5.5-2-3-2.5-5.3-3.2-5.4-2.8-1-1.7-.6-.6-.3-.1-9.6-5.3-5-4.5-5.5-2.1-3.6-1-5.7-5.9-2.9-2.8-1.8-5.1-3-4.4h-3.4l-4.9-3.1-1.3-3.5-5.4-1.1-2.3-2.3-1.5-3.5-3.1-1.4-7.3-2v5.1l1.7 4.9 2.5-.6 3.1 1 2 2v1.6l2.6 2.6-.3 1.6-5-1.5v4.8l-1.8 5.2 6.5 2 2.5 4.8 2.2 2.2 2.9 2.9v2.9l.2.4.2.2.2.2-4 .5-2.7-2.7-1.1-3.7h-6.8l.1-.2.5-.5 4.2-4.2-4.6-4.7-1 .4c-1.5.7-3.3 1.3-3.7 1.3-1 0-4.4.5-6 .8l-2-2-5.6-.6h-6.2l-5.8 1.2-2.7 2.7-5.3 3 3.6 6.6 1.7 3.2.3.4 1.7 1.6-.4 2.7h-3.7l-1.2.6-1.7 2.2-.2.9v1.3l-1.8.7v-.9l-.4-3.9-1.2-1-4-3v-5.4l-5.4 6v1.5l-4.6-2.4-3.3-3.1-6.4 6.4-.5.5h-3.2l-1 .5-2.4 2.3h-2l-1.4-3.3 1.5-4.3.1-.3v-5.9l1.3-2 2.3-3.8v-6.7l2-7.7v-12.8l-2.2-2.5V514l1.3-5.6v-14.6l3.2-5.3-3.8-3.8-1.9-4.7 1-6.6 4-3.9-4-8 .6-6.9 3.7-7.5 3.8-3.7 3.8-6.4 8-8h5.2l5.9-3.8-2.6-2.6-1.1-1.8 1.4-1.4h2.8l3.7-3.4 4.3-4.2-1-3 3 1.2 4.7-5-3.2-3.3-1-3.6 1-2.8 2.4-2.5 3.8-1 3.3-4 7-3.3V383l3.3-.5.3-.1-.8 2.6v4.5l1 .3 1 .5q-.2.8 0 1.2c.5 1 1.3 1.4 6.2.3l.8-.2 2-5.4v-4.2l4.2-1.8.9-4.5-1.4-7 6.7-1V361l3.7-1.1.4-7h-5.7l-2.4 2.4-2.3 2.1-1.8.3-2.3-2.3v-4.2l-4-3.9-1.1-8.6v-7.3l-4.1-6.4.7-6.8-4.3-3-.2-8.8 2.4-2.8 1.5-5.7.7-2.3V293h5.9l.4-1.1 2-5.8 1.8 1.7 1.9 4 5.6 5.6 2.8 2.8v-7l1.6.8.3.8 3 7.2 2.8-9.6-.4-9.3-2.4-5.5v-7.8l-2.4-2.4 1-1.5 2.6.3 1-6h-5.8l-7.5-7.5-2-2 1-3v-4.2l3-1.6v6.1l5.3 3.4 3 4 3 3 3.5 1.2h2.4l2.6 5 2.7 2.7v6.4l-1.7 5.6.3 5.5 2.8 2.4 2.8 8.3.3.9 2 4.9.1.3 2 6.8 2 8 4.4 5.8 2.6 8.2 1.2 7.3 2 6.4-4 4 2.5 4.1-1.2 2.6-2.2 2.2v3.8l4.9 1 3.3 4.8.8 5.5 3.1 3.2v4.8l5.1 5.3 6.6 6.6 3.1 5.7 6.7 4.5 6.5 3.5 10.3 3.1 4.4 1 3.7 2.4 2.7 3.6 9.2 4.8 7.6 3.3 7.9 3.5 4.4 4.5h4.6l3.1 3.1 4.9 2.4h6.3l4.8 6.5v-9.1z" />
    </mask>
  </defs>
</svg>
